<svg width="533" height="630" viewBox="0 0 533 630" fill="none" xmlns="http://www.w3.org/2000/svg">
<g opacity="0.91" filter="url(#filter0_d)">
<path d="M356.788 197.342C235.465 91.0492 153.184 67.0494 100.42 70.8488C47.6922 74.6457 24.1688 106.228 20.4001 111.817C20.1171 112.237 20.0049 112.679 20.0106 113.285L21.9179 318.465C22.6106 392.975 54.1832 462.418 102.579 505.719C150.946 548.993 216.093 566.154 284.14 536.238C354.219 505.429 418.206 455.347 446.059 373.993C455.852 345.39 456.387 321.171 451.423 300.665C446.457 280.153 435.972 263.29 423.625 249.432C411.274 235.571 397.076 224.733 384.711 216.273C379.866 212.958 375.312 210.015 371.257 207.394C370.136 206.669 369.052 205.968 368.011 205.292C363.232 202.185 359.31 199.551 356.788 197.342Z" stroke="#4F4F4F" stroke-width="2"/>
</g>
<mask id="mask0" mask-type="alpha" maskUnits="userSpaceOnUse" x="19" y="10" width="362" height="391">
<path opacity="0.69" d="M299.682 115.787C99.4857 -59.43 26.7327 34.4848 19.593 44.9158C19.166 45.5397 19.0037 46.2211 19.0107 46.9772L20.1637 170.878C21.5553 320.426 152.604 455.65 279.673 376.783C321.152 351.038 356.283 314.596 373.955 263.031C406.623 167.708 315.99 130.06 299.682 115.787Z" fill="#25356A" fill-opacity="0.35"/>
</mask>
<g mask="url(#mask0)">
<circle cx="21.1398" cy="5.54701" r="5.07203" fill="#25356A" fill-opacity="0.35"/>
<circle cx="38.0466" cy="5.54701" r="5.07203" fill="#25356A" fill-opacity="0.35"/>
<circle cx="54.9534" cy="5.54701" r="5.07203" fill="#25356A" fill-opacity="0.35"/>
<circle cx="71.8602" cy="5.54701" r="5.07203" fill="#25356A" fill-opacity="0.35"/>
<circle cx="88.767" cy="5.54701" r="5.07203" fill="#25356A" fill-opacity="0.35"/>
<circle cx="105.674" cy="5.54701" r="5.07203" fill="#25356A" fill-opacity="0.35"/>
<circle cx="122.581" cy="5.54701" r="5.07203" fill="#25356A" fill-opacity="0.35"/>
<circle cx="139.487" cy="5.54701" r="5.07203" fill="#25356A" fill-opacity="0.35"/>
<circle cx="156.394" cy="5.54701" r="5.07203" fill="#25356A" fill-opacity="0.35"/>
<circle cx="173.301" cy="5.54701" r="5.07203" fill="#25356A" fill-opacity="0.35"/>
<circle cx="190.208" cy="5.54701" r="5.07203" fill="#25356A" fill-opacity="0.35"/>
<circle cx="207.114" cy="5.54701" r="5.07203" fill="#25356A" fill-opacity="0.35"/>
<circle cx="224.021" cy="5.54701" r="5.07203" fill="#25356A" fill-opacity="0.35"/>
<circle cx="240.928" cy="5.54701" r="5.07203" fill="#25356A" fill-opacity="0.35"/>
<circle cx="257.835" cy="5.54701" r="5.07203" fill="#25356A" fill-opacity="0.35"/>
<circle cx="274.742" cy="5.54701" r="5.07203" fill="#25356A" fill-opacity="0.35"/>
<circle cx="291.648" cy="5.54701" r="5.07203" fill="#25356A" fill-opacity="0.35"/>
<circle cx="308.555" cy="5.54701" r="5.07203" fill="#25356A" fill-opacity="0.35"/>
<circle cx="325.462" cy="5.54701" r="5.07203" fill="#25356A" fill-opacity="0.35"/>
<circle cx="342.369" cy="5.54701" r="5.07203" fill="#25356A" fill-opacity="0.35"/>
<circle cx="359.275" cy="5.54701" r="5.07203" fill="#25356A" fill-opacity="0.35"/>
<circle cx="376.182" cy="5.54701" r="5.07203" fill="#25356A" fill-opacity="0.35"/>
<circle cx="21.1398" cy="22.4539" r="5.07203" fill="#25356A" fill-opacity="0.35"/>
<circle cx="54.9534" cy="22.4539" r="5.07203" fill="#25356A" fill-opacity="0.35"/>
<circle cx="71.8602" cy="22.4539" r="5.07203" fill="#25356A" fill-opacity="0.35"/>
<circle cx="88.767" cy="22.4539" r="5.07203" fill="#25356A" fill-opacity="0.35"/>
<circle cx="105.674" cy="22.4539" r="5.07203" fill="#25356A" fill-opacity="0.35"/>
<circle cx="122.581" cy="22.4539" r="5.07203" fill="#25356A" fill-opacity="0.35"/>
<circle cx="173.301" cy="22.4539" r="5.07203" fill="#25356A" fill-opacity="0.35"/>
<circle cx="190.208" cy="22.4539" r="5.07203" fill="#25356A" fill-opacity="0.35"/>
<circle cx="207.114" cy="22.4539" r="5.07203" fill="#25356A" fill-opacity="0.35"/>
<circle cx="224.021" cy="22.4539" r="5.07203" fill="#25356A" fill-opacity="0.35"/>
<circle cx="240.928" cy="22.4539" r="5.07203" fill="#25356A" fill-opacity="0.35"/>
<circle cx="257.835" cy="22.4539" r="5.07203" fill="#25356A" fill-opacity="0.35"/>
<circle cx="274.742" cy="22.4539" r="5.07203" fill="#25356A" fill-opacity="0.35"/>
<circle cx="291.648" cy="22.4539" r="5.07203" fill="#25356A" fill-opacity="0.35"/>
<circle cx="308.555" cy="22.4539" r="5.07203" fill="#25356A" fill-opacity="0.35"/>
<circle cx="325.462" cy="22.4539" r="5.07203" fill="#25356A" fill-opacity="0.35"/>
<circle cx="342.369" cy="22.4539" r="5.07203" fill="#25356A" fill-opacity="0.35"/>
<circle cx="359.275" cy="22.4539" r="5.07203" fill="#25356A" fill-opacity="0.35"/>
<circle cx="376.182" cy="22.4539" r="5.07203" fill="#25356A" fill-opacity="0.35"/>
<circle cx="38.0466" cy="39.3606" r="5.07203" fill="#25356A" fill-opacity="0.35"/>
<circle cx="54.9534" cy="39.3606" r="5.07203" fill="#25356A" fill-opacity="0.35"/>
<circle cx="71.8602" cy="39.3606" r="5.07203" fill="#25356A" fill-opacity="0.35"/>
<circle cx="88.767" cy="39.3606" r="5.07203" fill="#25356A" fill-opacity="0.35"/>
<circle cx="105.674" cy="39.3606" r="5.07203" fill="#25356A" fill-opacity="0.35"/>
<circle cx="122.581" cy="39.3606" r="5.07203" fill="#25356A" fill-opacity="0.35"/>
<circle cx="139.487" cy="39.3606" r="5.07203" fill="#25356A" fill-opacity="0.35"/>
<circle cx="156.394" cy="39.3606" r="5.07203" fill="#25356A" fill-opacity="0.35"/>
<circle cx="173.301" cy="39.3606" r="5.07203" fill="#25356A" fill-opacity="0.35"/>
<circle cx="207.114" cy="39.3606" r="5.07203" fill="#25356A" fill-opacity="0.35"/>
<circle cx="224.021" cy="39.3606" r="5.07203" fill="#25356A" fill-opacity="0.35"/>
<circle cx="240.928" cy="39.3606" r="5.07203" fill="#25356A" fill-opacity="0.35"/>
<circle cx="257.835" cy="39.3606" r="5.07203" fill="#25356A" fill-opacity="0.35"/>
<circle cx="274.742" cy="39.3606" r="5.07203" fill="#25356A" fill-opacity="0.35"/>
<circle cx="291.648" cy="39.3606" r="5.07203" fill="#25356A" fill-opacity="0.35"/>
<circle cx="308.555" cy="39.3606" r="5.07203" fill="#25356A" fill-opacity="0.35"/>
<circle cx="325.462" cy="39.3606" r="5.07203" fill="#25356A" fill-opacity="0.35"/>
<circle cx="342.369" cy="39.3606" r="5.07203" fill="#25356A" fill-opacity="0.35"/>
<circle cx="359.275" cy="39.3606" r="5.07203" fill="#25356A" fill-opacity="0.35"/>
<circle cx="376.182" cy="39.3606" r="5.07203" fill="#25356A" fill-opacity="0.35"/>
<circle cx="38.0466" cy="56.2673" r="5.07203" fill="#25356A" fill-opacity="0.35"/>
<circle cx="54.9534" cy="56.2673" r="5.07203" fill="#25356A" fill-opacity="0.35"/>
<circle cx="71.8602" cy="56.2673" r="5.07203" fill="#25356A" fill-opacity="0.35"/>
<circle cx="88.767" cy="56.2673" r="5.07203" fill="#25356A" fill-opacity="0.35"/>
<circle cx="105.674" cy="56.2673" r="5.07203" fill="#25356A" fill-opacity="0.35"/>
<circle cx="122.581" cy="56.2673" r="5.07203" fill="#25356A" fill-opacity="0.35"/>
<circle cx="139.487" cy="56.2673" r="5.07203" fill="#25356A" fill-opacity="0.35"/>
<circle cx="156.394" cy="56.2673" r="5.07203" fill="#25356A" fill-opacity="0.35"/>
<circle cx="173.301" cy="56.2673" r="5.07203" fill="#25356A" fill-opacity="0.35"/>
<circle cx="190.208" cy="56.2673" r="5.07203" fill="#25356A" fill-opacity="0.35"/>
<circle cx="207.114" cy="56.2673" r="5.07203" fill="#25356A" fill-opacity="0.35"/>
<circle cx="240.928" cy="56.2673" r="5.07203" fill="#25356A" fill-opacity="0.35"/>
<circle cx="257.835" cy="56.2673" r="5.07203" fill="#25356A" fill-opacity="0.35"/>
<circle cx="274.742" cy="56.2673" r="5.07203" fill="#25356A" fill-opacity="0.35"/>
<circle cx="291.648" cy="56.2673" r="5.07203" fill="#25356A" fill-opacity="0.35"/>
<circle cx="308.555" cy="56.2673" r="5.07203" fill="#25356A" fill-opacity="0.35"/>
<circle cx="325.462" cy="56.2673" r="5.07203" fill="#25356A" fill-opacity="0.35"/>
<circle cx="342.369" cy="56.2673" r="5.07203" fill="#25356A" fill-opacity="0.35"/>
<circle cx="359.275" cy="56.2673" r="5.07203" fill="#25356A" fill-opacity="0.35"/>
<circle cx="376.182" cy="56.2673" r="5.07203" fill="#25356A" fill-opacity="0.35"/>
<circle cx="38.0466" cy="73.1741" r="5.07203" fill="#25356A" fill-opacity="0.35"/>
<circle cx="54.9534" cy="73.1741" r="5.07203" fill="#25356A" fill-opacity="0.35"/>
<circle cx="71.8602" cy="73.1741" r="5.07203" fill="#25356A" fill-opacity="0.35"/>
<circle cx="88.767" cy="73.1741" r="5.07203" fill="#25356A" fill-opacity="0.35"/>
<circle cx="105.674" cy="73.1741" r="5.07203" fill="#25356A" fill-opacity="0.35"/>
<circle cx="122.581" cy="73.1741" r="5.07203" fill="#25356A" fill-opacity="0.35"/>
<circle cx="139.487" cy="73.1741" r="5.07203" fill="#25356A" fill-opacity="0.35"/>
<circle cx="156.394" cy="73.1741" r="5.07203" fill="#25356A" fill-opacity="0.35"/>
<circle cx="173.301" cy="73.1741" r="5.07203" fill="#25356A" fill-opacity="0.35"/>
<circle cx="190.208" cy="73.1741" r="5.07203" fill="#25356A" fill-opacity="0.35"/>
<circle cx="207.114" cy="73.1741" r="5.07203" fill="#25356A" fill-opacity="0.35"/>
<circle cx="224.021" cy="73.1741" r="5.07203" fill="#25356A" fill-opacity="0.35"/>
<circle cx="257.835" cy="73.1741" r="5.07203" fill="#25356A" fill-opacity="0.35"/>
<circle cx="274.742" cy="73.1741" r="5.07203" fill="#25356A" fill-opacity="0.35"/>
<circle cx="291.648" cy="73.1741" r="5.07203" fill="#25356A" fill-opacity="0.35"/>
<circle cx="308.555" cy="73.1741" r="5.07203" fill="#25356A" fill-opacity="0.35"/>
<circle cx="325.462" cy="73.1741" r="5.07203" fill="#25356A" fill-opacity="0.35"/>
<circle cx="342.369" cy="73.1741" r="5.07203" fill="#25356A" fill-opacity="0.35"/>
<circle cx="359.275" cy="73.1741" r="5.07203" fill="#25356A" fill-opacity="0.35"/>
<circle cx="376.182" cy="73.1741" r="5.07203" fill="#25356A" fill-opacity="0.35"/>
<circle cx="21.1398" cy="90.0808" r="5.07203" fill="#25356A" fill-opacity="0.35"/>
<circle cx="38.0466" cy="90.0808" r="5.07203" fill="#25356A" fill-opacity="0.35"/>
<circle cx="54.9534" cy="90.0808" r="5.07203" fill="#25356A" fill-opacity="0.35"/>
<circle cx="71.8602" cy="90.0808" r="5.07203" fill="#25356A" fill-opacity="0.35"/>
<circle cx="88.767" cy="90.0808" r="5.07203" fill="#25356A" fill-opacity="0.35"/>
<circle cx="105.674" cy="90.0808" r="5.07203" fill="#25356A" fill-opacity="0.35"/>
<circle cx="122.581" cy="90.0808" r="5.07203" fill="#25356A" fill-opacity="0.35"/>
<circle cx="139.487" cy="90.0808" r="5.07203" fill="#25356A" fill-opacity="0.35"/>
<circle cx="156.394" cy="90.0808" r="5.07203" fill="#25356A" fill-opacity="0.35"/>
<circle cx="173.301" cy="90.0808" r="5.07203" fill="#25356A" fill-opacity="0.35"/>
<circle cx="190.208" cy="90.0808" r="5.07203" fill="#25356A" fill-opacity="0.35"/>
<circle cx="207.114" cy="90.0808" r="5.07203" fill="#25356A" fill-opacity="0.35"/>
<circle cx="224.021" cy="90.0808" r="5.07203" fill="#25356A" fill-opacity="0.35"/>
<circle cx="240.928" cy="90.0808" r="5.07203" fill="#25356A" fill-opacity="0.35"/>
<circle cx="257.835" cy="90.0808" r="5.07203" fill="#25356A" fill-opacity="0.35"/>
<circle cx="291.648" cy="90.0808" r="5.07203" fill="#25356A" fill-opacity="0.35"/>
<circle cx="308.555" cy="90.0808" r="5.07203" fill="#25356A" fill-opacity="0.35"/>
<circle cx="325.462" cy="90.0808" r="5.07203" fill="#25356A" fill-opacity="0.35"/>
<circle cx="342.369" cy="90.0808" r="5.07203" fill="#25356A" fill-opacity="0.35"/>
<circle cx="359.275" cy="90.0808" r="5.07203" fill="#25356A" fill-opacity="0.35"/>
<circle cx="376.182" cy="90.0808" r="5.07203" fill="#25356A" fill-opacity="0.35"/>
<circle cx="21.1398" cy="106.988" r="5.07203" fill="#25356A" fill-opacity="0.35"/>
<circle cx="38.0466" cy="106.988" r="5.07203" fill="#25356A" fill-opacity="0.35"/>
<circle cx="54.9534" cy="106.988" r="5.07203" fill="#25356A" fill-opacity="0.35"/>
<circle cx="71.8602" cy="106.988" r="5.07203" fill="#25356A" fill-opacity="0.35"/>
<circle cx="88.767" cy="106.988" r="5.07203" fill="#25356A" fill-opacity="0.35"/>
<circle cx="105.674" cy="106.988" r="5.07203" fill="#25356A" fill-opacity="0.35"/>
<circle cx="122.581" cy="106.988" r="5.07203" fill="#25356A" fill-opacity="0.35"/>
<circle cx="139.487" cy="106.988" r="5.07203" fill="#25356A" fill-opacity="0.35"/>
<circle cx="156.394" cy="106.988" r="5.07203" fill="#25356A" fill-opacity="0.35"/>
<circle cx="173.301" cy="106.988" r="5.07203" fill="#25356A" fill-opacity="0.35"/>
<circle cx="190.208" cy="106.988" r="5.07203" fill="#25356A" fill-opacity="0.35"/>
<circle cx="207.114" cy="106.988" r="5.07203" fill="#25356A" fill-opacity="0.35"/>
<circle cx="224.021" cy="106.988" r="5.07203" fill="#25356A" fill-opacity="0.35"/>
<circle cx="240.928" cy="106.988" r="5.07203" fill="#25356A" fill-opacity="0.35"/>
<circle cx="257.835" cy="106.988" r="5.07203" fill="#25356A" fill-opacity="0.35"/>
<circle cx="274.742" cy="106.988" r="5.07203" fill="#25356A" fill-opacity="0.35"/>
<circle cx="308.555" cy="106.988" r="5.07203" fill="#25356A" fill-opacity="0.35"/>
<circle cx="325.462" cy="106.988" r="5.07203" fill="#25356A" fill-opacity="0.35"/>
<circle cx="342.369" cy="106.988" r="5.07203" fill="#25356A" fill-opacity="0.35"/>
<circle cx="359.275" cy="106.988" r="5.07203" fill="#25356A" fill-opacity="0.35"/>
<circle cx="376.182" cy="106.988" r="5.07203" fill="#25356A" fill-opacity="0.35"/>
<circle cx="21.1398" cy="123.895" r="5.07203" fill="#25356A" fill-opacity="0.35"/>
<circle cx="38.0466" cy="123.895" r="5.07203" fill="#25356A" fill-opacity="0.35"/>
<circle cx="54.9534" cy="123.895" r="5.07203" fill="#25356A" fill-opacity="0.35"/>
<circle cx="71.8602" cy="123.895" r="5.07203" fill="#25356A" fill-opacity="0.35"/>
<circle cx="88.767" cy="123.895" r="5.07203" fill="#25356A" fill-opacity="0.35"/>
<circle cx="105.674" cy="123.895" r="5.07203" fill="#25356A" fill-opacity="0.35"/>
<circle cx="122.581" cy="123.895" r="5.07203" fill="#25356A" fill-opacity="0.35"/>
<circle cx="139.487" cy="123.895" r="5.07203" fill="#25356A" fill-opacity="0.35"/>
<circle cx="156.394" cy="123.895" r="5.07203" fill="#25356A" fill-opacity="0.35"/>
<circle cx="173.301" cy="123.895" r="5.07203" fill="#25356A" fill-opacity="0.35"/>
<circle cx="190.208" cy="123.895" r="5.07203" fill="#25356A" fill-opacity="0.35"/>
<circle cx="207.114" cy="123.895" r="5.07203" fill="#25356A" fill-opacity="0.35"/>
<circle cx="224.021" cy="123.895" r="5.07203" fill="#25356A" fill-opacity="0.35"/>
<circle cx="240.928" cy="123.895" r="5.07203" fill="#25356A" fill-opacity="0.35"/>
<circle cx="257.835" cy="123.895" r="5.07203" fill="#25356A" fill-opacity="0.35"/>
<circle cx="274.742" cy="123.895" r="5.07203" fill="#25356A" fill-opacity="0.35"/>
<circle cx="291.648" cy="123.895" r="5.07203" fill="#25356A" fill-opacity="0.35"/>
<circle cx="325.462" cy="123.895" r="5.07203" fill="#25356A" fill-opacity="0.35"/>
<circle cx="342.369" cy="123.895" r="5.07203" fill="#25356A" fill-opacity="0.35"/>
<circle cx="359.275" cy="123.895" r="5.07203" fill="#25356A" fill-opacity="0.35"/>
<circle cx="376.182" cy="123.895" r="5.07203" fill="#25356A" fill-opacity="0.35"/>
<circle cx="21.1398" cy="140.801" r="5.07203" fill="#25356A" fill-opacity="0.35"/>
<circle cx="38.0466" cy="140.801" r="5.07203" fill="#25356A" fill-opacity="0.35"/>
<circle cx="54.9534" cy="140.801" r="5.07203" fill="#25356A" fill-opacity="0.35"/>
<circle cx="71.8602" cy="140.801" r="5.07203" fill="#25356A" fill-opacity="0.35"/>
<circle cx="88.767" cy="140.801" r="5.07203" fill="#25356A" fill-opacity="0.35"/>
<circle cx="105.674" cy="140.801" r="5.07203" fill="#25356A" fill-opacity="0.35"/>
<circle cx="122.581" cy="140.801" r="5.07203" fill="#25356A" fill-opacity="0.35"/>
<circle cx="139.487" cy="140.801" r="5.07203" fill="#25356A" fill-opacity="0.35"/>
<circle cx="156.394" cy="140.801" r="5.07203" fill="#25356A" fill-opacity="0.35"/>
<circle cx="173.301" cy="140.801" r="5.07203" fill="#25356A" fill-opacity="0.35"/>
<circle cx="190.208" cy="140.801" r="5.07203" fill="#25356A" fill-opacity="0.35"/>
<circle cx="207.114" cy="140.801" r="5.07203" fill="#25356A" fill-opacity="0.35"/>
<circle cx="224.021" cy="140.801" r="5.07203" fill="#25356A" fill-opacity="0.35"/>
<circle cx="240.928" cy="140.801" r="5.07203" fill="#25356A" fill-opacity="0.35"/>
<circle cx="257.835" cy="140.801" r="5.07203" fill="#25356A" fill-opacity="0.35"/>
<circle cx="274.742" cy="140.801" r="5.07203" fill="#25356A" fill-opacity="0.35"/>
<circle cx="291.648" cy="140.801" r="5.07203" fill="#25356A" fill-opacity="0.35"/>
<circle cx="308.555" cy="140.801" r="5.07203" fill="#25356A" fill-opacity="0.35"/>
<circle cx="325.462" cy="140.801" r="5.07203" fill="#25356A" fill-opacity="0.35"/>
<circle cx="359.275" cy="140.801" r="5.07203" fill="#25356A" fill-opacity="0.35"/>
<circle cx="376.182" cy="140.801" r="5.07203" fill="#25356A" fill-opacity="0.35"/>
<circle cx="21.1398" cy="157.708" r="5.07203" fill="#25356A" fill-opacity="0.35"/>
<circle cx="38.0466" cy="157.708" r="5.07203" fill="#25356A" fill-opacity="0.35"/>
<circle cx="54.9534" cy="157.708" r="5.07203" fill="#25356A" fill-opacity="0.35"/>
<circle cx="71.8602" cy="157.708" r="5.07203" fill="#25356A" fill-opacity="0.35"/>
<circle cx="88.767" cy="157.708" r="5.07203" fill="#25356A" fill-opacity="0.35"/>
<circle cx="105.674" cy="157.708" r="5.07203" fill="#25356A" fill-opacity="0.35"/>
<circle cx="122.581" cy="157.708" r="5.07203" fill="#25356A" fill-opacity="0.35"/>
<circle cx="139.487" cy="157.708" r="5.07203" fill="#25356A" fill-opacity="0.35"/>
<circle cx="156.394" cy="157.708" r="5.07203" fill="#25356A" fill-opacity="0.35"/>
<circle cx="173.301" cy="157.708" r="5.07203" fill="#25356A" fill-opacity="0.35"/>
<circle cx="190.208" cy="157.708" r="5.07203" fill="#25356A" fill-opacity="0.35"/>
<circle cx="207.114" cy="157.708" r="5.07203" fill="#25356A" fill-opacity="0.35"/>
<circle cx="224.021" cy="157.708" r="5.07203" fill="#25356A" fill-opacity="0.35"/>
<circle cx="240.928" cy="157.708" r="5.07203" fill="#25356A" fill-opacity="0.35"/>
<circle cx="257.835" cy="157.708" r="5.07203" fill="#25356A" fill-opacity="0.35"/>
<circle cx="274.742" cy="157.708" r="5.07203" fill="#25356A" fill-opacity="0.35"/>
<circle cx="291.648" cy="157.708" r="5.07203" fill="#25356A" fill-opacity="0.35"/>
<circle cx="308.555" cy="157.708" r="5.07203" fill="#25356A" fill-opacity="0.35"/>
<circle cx="325.462" cy="157.708" r="5.07203" fill="#25356A" fill-opacity="0.35"/>
<circle cx="342.369" cy="157.708" r="5.07203" fill="#25356A" fill-opacity="0.35"/>
<circle cx="376.182" cy="157.708" r="5.07203" fill="#25356A" fill-opacity="0.35"/>
<circle cx="21.1398" cy="174.615" r="5.07203" fill="#25356A" fill-opacity="0.35"/>
<circle cx="38.0466" cy="174.615" r="5.07203" fill="#25356A" fill-opacity="0.35"/>
<circle cx="54.9534" cy="174.615" r="5.07203" fill="#25356A" fill-opacity="0.35"/>
<circle cx="71.8602" cy="174.615" r="5.07203" fill="#25356A" fill-opacity="0.35"/>
<circle cx="88.767" cy="174.615" r="5.07203" fill="#25356A" fill-opacity="0.35"/>
<circle cx="105.674" cy="174.615" r="5.07203" fill="#25356A" fill-opacity="0.35"/>
<circle cx="122.581" cy="174.615" r="5.07203" fill="#25356A" fill-opacity="0.35"/>
<circle cx="139.487" cy="174.615" r="5.07203" fill="#25356A" fill-opacity="0.35"/>
<circle cx="156.394" cy="174.615" r="5.07203" fill="#25356A" fill-opacity="0.35"/>
<circle cx="173.301" cy="174.615" r="5.07203" fill="#25356A" fill-opacity="0.35"/>
<circle cx="190.208" cy="174.615" r="5.07203" fill="#25356A" fill-opacity="0.35"/>
<circle cx="207.114" cy="174.615" r="5.07203" fill="#25356A" fill-opacity="0.35"/>
<circle cx="224.021" cy="174.615" r="5.07203" fill="#25356A" fill-opacity="0.35"/>
<circle cx="240.928" cy="174.615" r="5.07203" fill="#25356A" fill-opacity="0.35"/>
<circle cx="257.835" cy="174.615" r="5.07203" fill="#25356A" fill-opacity="0.35"/>
<circle cx="274.742" cy="174.615" r="5.07203" fill="#25356A" fill-opacity="0.35"/>
<circle cx="291.648" cy="174.615" r="5.07203" fill="#25356A" fill-opacity="0.35"/>
<circle cx="308.555" cy="174.615" r="5.07203" fill="#25356A" fill-opacity="0.35"/>
<circle cx="325.462" cy="174.615" r="5.07203" fill="#25356A" fill-opacity="0.35"/>
<circle cx="342.369" cy="174.615" r="5.07203" fill="#25356A" fill-opacity="0.35"/>
<circle cx="359.275" cy="174.615" r="5.07203" fill="#25356A" fill-opacity="0.35"/>
<circle cx="376.182" cy="174.615" r="5.07203" fill="#25356A" fill-opacity="0.35"/>
<circle cx="21.1398" cy="191.521" r="5.07203" fill="#25356A" fill-opacity="0.35"/>
<circle cx="38.0466" cy="191.521" r="5.07203" fill="#25356A" fill-opacity="0.35"/>
<circle cx="54.9534" cy="191.521" r="5.07203" fill="#25356A" fill-opacity="0.35"/>
<circle cx="71.8602" cy="191.521" r="5.07203" fill="#25356A" fill-opacity="0.35"/>
<circle cx="88.767" cy="191.521" r="5.07203" fill="#25356A" fill-opacity="0.35"/>
<circle cx="105.674" cy="191.521" r="5.07203" fill="#25356A" fill-opacity="0.35"/>
<circle cx="122.581" cy="191.521" r="5.07203" fill="#25356A" fill-opacity="0.35"/>
<circle cx="139.487" cy="191.521" r="5.07203" fill="#25356A" fill-opacity="0.35"/>
<circle cx="156.394" cy="191.521" r="5.07203" fill="#25356A" fill-opacity="0.35"/>
<circle cx="173.301" cy="191.521" r="5.07203" fill="#25356A" fill-opacity="0.35"/>
<circle cx="190.208" cy="191.521" r="5.07203" fill="#25356A" fill-opacity="0.35"/>
<circle cx="207.114" cy="191.521" r="5.07203" fill="#25356A" fill-opacity="0.35"/>
<circle cx="224.021" cy="191.521" r="5.07203" fill="#25356A" fill-opacity="0.35"/>
<circle cx="240.928" cy="191.521" r="5.07203" fill="#25356A" fill-opacity="0.35"/>
<circle cx="257.835" cy="191.521" r="5.07203" fill="#25356A" fill-opacity="0.35"/>
<circle cx="274.742" cy="191.521" r="5.07203" fill="#25356A" fill-opacity="0.35"/>
<circle cx="291.648" cy="191.521" r="5.07203" fill="#25356A" fill-opacity="0.35"/>
<circle cx="308.555" cy="191.521" r="5.07203" fill="#25356A" fill-opacity="0.35"/>
<circle cx="325.462" cy="191.521" r="5.07203" fill="#25356A" fill-opacity="0.35"/>
<circle cx="342.369" cy="191.521" r="5.07203" fill="#25356A" fill-opacity="0.35"/>
<circle cx="359.275" cy="191.521" r="5.07203" fill="#25356A" fill-opacity="0.35"/>
<circle cx="21.1398" cy="208.428" r="5.07203" fill="#25356A" fill-opacity="0.35"/>
<circle cx="38.0466" cy="208.428" r="5.07203" fill="#25356A" fill-opacity="0.35"/>
<circle cx="54.9534" cy="208.428" r="5.07203" fill="#25356A" fill-opacity="0.35"/>
<circle cx="71.8602" cy="208.428" r="5.07203" fill="#25356A" fill-opacity="0.35"/>
<circle cx="88.767" cy="208.428" r="5.07203" fill="#25356A" fill-opacity="0.35"/>
<circle cx="105.674" cy="208.428" r="5.07203" fill="#25356A" fill-opacity="0.35"/>
<circle cx="122.581" cy="208.428" r="5.07203" fill="#25356A" fill-opacity="0.35"/>
<circle cx="139.487" cy="208.428" r="5.07203" fill="#25356A" fill-opacity="0.35"/>
<circle cx="156.394" cy="208.428" r="5.07203" fill="#25356A" fill-opacity="0.35"/>
<circle cx="173.301" cy="208.428" r="5.07203" fill="#25356A" fill-opacity="0.35"/>
<circle cx="190.208" cy="208.428" r="5.07203" fill="#25356A" fill-opacity="0.35"/>
<circle cx="207.114" cy="208.428" r="5.07203" fill="#25356A" fill-opacity="0.35"/>
<circle cx="224.021" cy="208.428" r="5.07203" fill="#25356A" fill-opacity="0.35"/>
<circle cx="240.928" cy="208.428" r="5.07203" fill="#25356A" fill-opacity="0.35"/>
<circle cx="257.835" cy="208.428" r="5.07203" fill="#25356A" fill-opacity="0.35"/>
<circle cx="274.742" cy="208.428" r="5.07203" fill="#25356A" fill-opacity="0.35"/>
<circle cx="291.648" cy="208.428" r="5.07203" fill="#25356A" fill-opacity="0.35"/>
<circle cx="308.555" cy="208.428" r="5.07203" fill="#25356A" fill-opacity="0.35"/>
<circle cx="325.462" cy="208.428" r="5.07203" fill="#25356A" fill-opacity="0.35"/>
<circle cx="342.369" cy="208.428" r="5.07203" fill="#25356A" fill-opacity="0.35"/>
<circle cx="359.275" cy="208.428" r="5.07203" fill="#25356A" fill-opacity="0.35"/>
<circle cx="21.1398" cy="225.335" r="5.07203" fill="#25356A" fill-opacity="0.35"/>
<circle cx="38.0466" cy="225.335" r="5.07203" fill="#25356A" fill-opacity="0.35"/>
<circle cx="54.9534" cy="225.335" r="5.07203" fill="#25356A" fill-opacity="0.35"/>
<circle cx="71.8602" cy="225.335" r="5.07203" fill="#25356A" fill-opacity="0.35"/>
<circle cx="88.767" cy="225.335" r="5.07203" fill="#25356A" fill-opacity="0.35"/>
<circle cx="105.674" cy="225.335" r="5.07203" fill="#25356A" fill-opacity="0.35"/>
<circle cx="122.581" cy="225.335" r="5.07203" fill="#25356A" fill-opacity="0.35"/>
<circle cx="139.487" cy="225.335" r="5.07203" fill="#25356A" fill-opacity="0.35"/>
<circle cx="156.394" cy="225.335" r="5.07203" fill="#25356A" fill-opacity="0.35"/>
<circle cx="173.301" cy="225.335" r="5.07203" fill="#25356A" fill-opacity="0.35"/>
<circle cx="190.208" cy="225.335" r="5.07203" fill="#25356A" fill-opacity="0.35"/>
<circle cx="207.114" cy="225.335" r="5.07203" fill="#25356A" fill-opacity="0.35"/>
<circle cx="224.021" cy="225.335" r="5.07203" fill="#25356A" fill-opacity="0.35"/>
<circle cx="240.928" cy="225.335" r="5.07203" fill="#25356A" fill-opacity="0.35"/>
<circle cx="257.835" cy="225.335" r="5.07203" fill="#25356A" fill-opacity="0.35"/>
<circle cx="274.742" cy="225.335" r="5.07203" fill="#25356A" fill-opacity="0.35"/>
<circle cx="291.648" cy="225.335" r="5.07203" fill="#25356A" fill-opacity="0.35"/>
<circle cx="308.555" cy="225.335" r="5.07203" fill="#25356A" fill-opacity="0.35"/>
<circle cx="325.462" cy="225.335" r="5.07203" fill="#25356A" fill-opacity="0.35"/>
<circle cx="342.369" cy="225.335" r="5.07203" fill="#25356A" fill-opacity="0.35"/>
<circle cx="359.275" cy="225.335" r="5.07203" fill="#25356A" fill-opacity="0.35"/>
<circle cx="376.182" cy="225.335" r="5.07203" fill="#25356A" fill-opacity="0.35"/>
<circle cx="21.1398" cy="242.242" r="5.07203" fill="#25356A" fill-opacity="0.35"/>
<circle cx="38.0466" cy="242.242" r="5.07203" fill="#25356A" fill-opacity="0.35"/>
<circle cx="54.9534" cy="242.242" r="5.07203" fill="#25356A" fill-opacity="0.35"/>
<circle cx="71.8602" cy="242.242" r="5.07203" fill="#25356A" fill-opacity="0.35"/>
<circle cx="88.767" cy="242.242" r="5.07203" fill="#25356A" fill-opacity="0.35"/>
<circle cx="105.674" cy="242.242" r="5.07203" fill="#25356A" fill-opacity="0.35"/>
<circle cx="122.581" cy="242.242" r="5.07203" fill="#25356A" fill-opacity="0.35"/>
<circle cx="139.487" cy="242.242" r="5.07203" fill="#25356A" fill-opacity="0.35"/>
<circle cx="156.394" cy="242.242" r="5.07203" fill="#25356A" fill-opacity="0.35"/>
<circle cx="173.301" cy="242.242" r="5.07203" fill="#25356A" fill-opacity="0.35"/>
<circle cx="190.208" cy="242.242" r="5.07203" fill="#25356A" fill-opacity="0.35"/>
<circle cx="207.114" cy="242.242" r="5.07203" fill="#25356A" fill-opacity="0.35"/>
<circle cx="224.021" cy="242.242" r="5.07203" fill="#25356A" fill-opacity="0.35"/>
<circle cx="240.928" cy="242.242" r="5.07203" fill="#25356A" fill-opacity="0.35"/>
<circle cx="257.835" cy="242.242" r="5.07203" fill="#25356A" fill-opacity="0.35"/>
<circle cx="274.742" cy="242.242" r="5.07203" fill="#25356A" fill-opacity="0.35"/>
<circle cx="291.648" cy="242.242" r="5.07203" fill="#25356A" fill-opacity="0.35"/>
<circle cx="308.555" cy="242.242" r="5.07203" fill="#25356A" fill-opacity="0.35"/>
<circle cx="325.462" cy="242.242" r="5.07203" fill="#25356A" fill-opacity="0.35"/>
<circle cx="342.369" cy="242.242" r="5.07203" fill="#25356A" fill-opacity="0.35"/>
<circle cx="359.275" cy="242.242" r="5.07203" fill="#25356A" fill-opacity="0.35"/>
<circle cx="21.1398" cy="259.149" r="5.07203" fill="#25356A" fill-opacity="0.35"/>
<circle cx="38.0466" cy="259.149" r="5.07203" fill="#25356A" fill-opacity="0.35"/>
<circle cx="54.9534" cy="259.149" r="5.07203" fill="#25356A" fill-opacity="0.35"/>
<circle cx="71.8602" cy="259.149" r="5.07203" fill="#25356A" fill-opacity="0.35"/>
<circle cx="88.767" cy="259.149" r="5.07203" fill="#25356A" fill-opacity="0.35"/>
<circle cx="105.674" cy="259.149" r="5.07203" fill="#25356A" fill-opacity="0.35"/>
<circle cx="122.581" cy="259.149" r="5.07203" fill="#25356A" fill-opacity="0.35"/>
<circle cx="139.487" cy="259.149" r="5.07203" fill="#25356A" fill-opacity="0.35"/>
<circle cx="156.394" cy="259.149" r="5.07203" fill="#25356A" fill-opacity="0.35"/>
<circle cx="173.301" cy="259.149" r="5.07203" fill="#25356A" fill-opacity="0.35"/>
<circle cx="190.208" cy="259.149" r="5.07203" fill="#25356A" fill-opacity="0.35"/>
<circle cx="207.114" cy="259.149" r="5.07203" fill="#25356A" fill-opacity="0.35"/>
<circle cx="224.021" cy="259.149" r="5.07203" fill="#25356A" fill-opacity="0.35"/>
<circle cx="240.928" cy="259.149" r="5.07203" fill="#25356A" fill-opacity="0.35"/>
<circle cx="257.835" cy="259.149" r="5.07203" fill="#25356A" fill-opacity="0.35"/>
<circle cx="274.742" cy="259.149" r="5.07203" fill="#25356A" fill-opacity="0.35"/>
<circle cx="291.648" cy="259.149" r="5.07203" fill="#25356A" fill-opacity="0.35"/>
<circle cx="308.555" cy="259.149" r="5.07203" fill="#25356A" fill-opacity="0.35"/>
<circle cx="325.462" cy="259.149" r="5.07203" fill="#25356A" fill-opacity="0.35"/>
<circle cx="342.369" cy="259.149" r="5.07203" fill="#25356A" fill-opacity="0.35"/>
<circle cx="359.275" cy="259.149" r="5.07203" fill="#25356A" fill-opacity="0.35"/>
<circle cx="21.1398" cy="276.055" r="5.07203" fill="#25356A" fill-opacity="0.35"/>
<circle cx="38.0466" cy="276.055" r="5.07203" fill="#25356A" fill-opacity="0.35"/>
<circle cx="54.9534" cy="276.055" r="5.07203" fill="#25356A" fill-opacity="0.35"/>
<circle cx="71.8602" cy="276.055" r="5.07203" fill="#25356A" fill-opacity="0.35"/>
<circle cx="88.767" cy="276.055" r="5.07203" fill="#25356A" fill-opacity="0.35"/>
<circle cx="105.674" cy="276.055" r="5.07203" fill="#25356A" fill-opacity="0.35"/>
<circle cx="122.581" cy="276.055" r="5.07203" fill="#25356A" fill-opacity="0.35"/>
<circle cx="139.487" cy="276.055" r="5.07203" fill="#25356A" fill-opacity="0.35"/>
<circle cx="156.394" cy="276.055" r="5.07203" fill="#25356A" fill-opacity="0.35"/>
<circle cx="173.301" cy="276.055" r="5.07203" fill="#25356A" fill-opacity="0.35"/>
<circle cx="190.208" cy="276.055" r="5.07203" fill="#25356A" fill-opacity="0.35"/>
<circle cx="207.114" cy="276.055" r="5.07203" fill="#25356A" fill-opacity="0.35"/>
<circle cx="224.021" cy="276.055" r="5.07203" fill="#25356A" fill-opacity="0.35"/>
<circle cx="240.928" cy="276.055" r="5.07203" fill="#25356A" fill-opacity="0.35"/>
<circle cx="257.835" cy="276.055" r="5.07203" fill="#25356A" fill-opacity="0.35"/>
<circle cx="274.742" cy="276.055" r="5.07203" fill="#25356A" fill-opacity="0.35"/>
<circle cx="291.648" cy="276.055" r="5.07203" fill="#25356A" fill-opacity="0.35"/>
<circle cx="308.555" cy="276.055" r="5.07203" fill="#25356A" fill-opacity="0.35"/>
<circle cx="325.462" cy="276.055" r="5.07203" fill="#25356A" fill-opacity="0.35"/>
<circle cx="342.369" cy="276.055" r="5.07203" fill="#25356A" fill-opacity="0.35"/>
<circle cx="359.275" cy="276.055" r="5.07203" fill="#25356A" fill-opacity="0.35"/>
<circle cx="376.182" cy="276.055" r="5.07203" fill="#25356A" fill-opacity="0.35"/>
<circle cx="21.1398" cy="292.962" r="5.07203" fill="#25356A" fill-opacity="0.35"/>
<circle cx="38.0466" cy="292.962" r="5.07203" fill="#25356A" fill-opacity="0.35"/>
<circle cx="54.9534" cy="292.962" r="5.07203" fill="#25356A" fill-opacity="0.35"/>
<circle cx="71.8602" cy="292.962" r="5.07203" fill="#25356A" fill-opacity="0.35"/>
<circle cx="88.767" cy="292.962" r="5.07203" fill="#25356A" fill-opacity="0.35"/>
<circle cx="105.674" cy="292.962" r="5.07203" fill="#25356A" fill-opacity="0.35"/>
<circle cx="122.581" cy="292.962" r="5.07203" fill="#25356A" fill-opacity="0.35"/>
<circle cx="139.487" cy="292.962" r="5.07203" fill="#25356A" fill-opacity="0.35"/>
<circle cx="156.394" cy="292.962" r="5.07203" fill="#25356A" fill-opacity="0.35"/>
<circle cx="173.301" cy="292.962" r="5.07203" fill="#25356A" fill-opacity="0.35"/>
<circle cx="190.208" cy="292.962" r="5.07203" fill="#25356A" fill-opacity="0.35"/>
<circle cx="207.114" cy="292.962" r="5.07203" fill="#25356A" fill-opacity="0.35"/>
<circle cx="224.021" cy="292.962" r="5.07203" fill="#25356A" fill-opacity="0.35"/>
<circle cx="240.928" cy="292.962" r="5.07203" fill="#25356A" fill-opacity="0.35"/>
<circle cx="257.835" cy="292.962" r="5.07203" fill="#25356A" fill-opacity="0.35"/>
<circle cx="274.742" cy="292.962" r="5.07203" fill="#25356A" fill-opacity="0.35"/>
<circle cx="291.648" cy="292.962" r="5.07203" fill="#25356A" fill-opacity="0.35"/>
<circle cx="308.555" cy="292.962" r="5.07203" fill="#25356A" fill-opacity="0.35"/>
<circle cx="325.462" cy="292.962" r="5.07203" fill="#25356A" fill-opacity="0.35"/>
<circle cx="342.369" cy="292.962" r="5.07203" fill="#25356A" fill-opacity="0.35"/>
<circle cx="359.275" cy="292.962" r="5.07203" fill="#25356A" fill-opacity="0.35"/>
<circle cx="376.182" cy="292.962" r="5.07203" fill="#25356A" fill-opacity="0.35"/>
<circle cx="21.1398" cy="309.869" r="5.07203" fill="#25356A" fill-opacity="0.35"/>
<circle cx="38.0466" cy="309.869" r="5.07203" fill="#25356A" fill-opacity="0.35"/>
<circle cx="54.9534" cy="309.869" r="5.07203" fill="#25356A" fill-opacity="0.35"/>
<circle cx="71.8602" cy="309.869" r="5.07203" fill="#25356A" fill-opacity="0.35"/>
<circle cx="88.767" cy="309.869" r="5.07203" fill="#25356A" fill-opacity="0.35"/>
<circle cx="105.674" cy="309.869" r="5.07203" fill="#25356A" fill-opacity="0.35"/>
<circle cx="122.581" cy="309.869" r="5.07203" fill="#25356A" fill-opacity="0.35"/>
<circle cx="139.487" cy="309.869" r="5.07203" fill="#25356A" fill-opacity="0.35"/>
<circle cx="156.394" cy="309.869" r="5.07203" fill="#25356A" fill-opacity="0.35"/>
<circle cx="173.301" cy="309.869" r="5.07203" fill="#25356A" fill-opacity="0.35"/>
<circle cx="190.208" cy="309.869" r="5.07203" fill="#25356A" fill-opacity="0.35"/>
<circle cx="207.114" cy="309.869" r="5.07203" fill="#25356A" fill-opacity="0.35"/>
<circle cx="224.021" cy="309.869" r="5.07203" fill="#25356A" fill-opacity="0.35"/>
<circle cx="240.928" cy="309.869" r="5.07203" fill="#25356A" fill-opacity="0.35"/>
<circle cx="257.835" cy="309.869" r="5.07203" fill="#25356A" fill-opacity="0.35"/>
<circle cx="274.742" cy="309.869" r="5.07203" fill="#25356A" fill-opacity="0.35"/>
<circle cx="291.648" cy="309.869" r="5.07203" fill="#25356A" fill-opacity="0.35"/>
<circle cx="308.555" cy="309.869" r="5.07203" fill="#25356A" fill-opacity="0.35"/>
<circle cx="325.462" cy="309.869" r="5.07203" fill="#25356A" fill-opacity="0.35"/>
<circle cx="342.369" cy="309.869" r="5.07203" fill="#25356A" fill-opacity="0.35"/>
<circle cx="359.275" cy="309.869" r="5.07203" fill="#25356A" fill-opacity="0.35"/>
<circle cx="376.182" cy="309.869" r="5.07203" fill="#25356A" fill-opacity="0.35"/>
<circle cx="21.1398" cy="326.776" r="5.07203" fill="#25356A" fill-opacity="0.35"/>
<circle cx="38.0466" cy="326.776" r="5.07203" fill="#25356A" fill-opacity="0.35"/>
<circle cx="54.9534" cy="326.776" r="5.07203" fill="#25356A" fill-opacity="0.35"/>
<circle cx="71.8602" cy="326.776" r="5.07203" fill="#25356A" fill-opacity="0.35"/>
<circle cx="88.767" cy="326.776" r="5.07203" fill="#25356A" fill-opacity="0.35"/>
<circle cx="105.674" cy="326.776" r="5.07203" fill="#25356A" fill-opacity="0.35"/>
<circle cx="122.581" cy="326.776" r="5.07203" fill="#25356A" fill-opacity="0.35"/>
<circle cx="139.487" cy="326.776" r="5.07203" fill="#25356A" fill-opacity="0.35"/>
<circle cx="156.394" cy="326.776" r="5.07203" fill="#25356A" fill-opacity="0.35"/>
<circle cx="173.301" cy="326.776" r="5.07203" fill="#25356A" fill-opacity="0.35"/>
<circle cx="190.208" cy="326.776" r="5.07203" fill="#25356A" fill-opacity="0.35"/>
<circle cx="207.114" cy="326.776" r="5.07203" fill="#25356A" fill-opacity="0.35"/>
<circle cx="224.021" cy="326.776" r="5.07203" fill="#25356A" fill-opacity="0.35"/>
<circle cx="240.928" cy="326.776" r="5.07203" fill="#25356A" fill-opacity="0.35"/>
<circle cx="257.835" cy="326.776" r="5.07203" fill="#25356A" fill-opacity="0.35"/>
<circle cx="274.742" cy="326.776" r="5.07203" fill="#25356A" fill-opacity="0.35"/>
<circle cx="291.648" cy="326.776" r="5.07203" fill="#25356A" fill-opacity="0.35"/>
<circle cx="308.555" cy="326.776" r="5.07203" fill="#25356A" fill-opacity="0.35"/>
<circle cx="325.462" cy="326.776" r="5.07203" fill="#25356A" fill-opacity="0.35"/>
<circle cx="342.369" cy="326.776" r="5.07203" fill="#25356A" fill-opacity="0.35"/>
<circle cx="359.275" cy="326.776" r="5.07203" fill="#25356A" fill-opacity="0.35"/>
<circle cx="376.182" cy="326.776" r="5.07203" fill="#25356A" fill-opacity="0.35"/>
<circle cx="21.1398" cy="343.683" r="5.07203" fill="#25356A" fill-opacity="0.35"/>
<circle cx="38.0466" cy="343.683" r="5.07203" fill="#25356A" fill-opacity="0.35"/>
<circle cx="54.9534" cy="343.683" r="5.07203" fill="#25356A" fill-opacity="0.35"/>
<circle cx="71.8602" cy="343.683" r="5.07203" fill="#25356A" fill-opacity="0.35"/>
<circle cx="88.767" cy="343.683" r="5.07203" fill="#25356A" fill-opacity="0.35"/>
<circle cx="105.674" cy="343.683" r="5.07203" fill="#25356A" fill-opacity="0.35"/>
<circle cx="122.581" cy="343.683" r="5.07203" fill="#25356A" fill-opacity="0.35"/>
<circle cx="139.487" cy="343.683" r="5.07203" fill="#25356A" fill-opacity="0.35"/>
<circle cx="156.394" cy="343.683" r="5.07203" fill="#25356A" fill-opacity="0.35"/>
<circle cx="173.301" cy="343.683" r="5.07203" fill="#25356A" fill-opacity="0.35"/>
<circle cx="190.208" cy="343.683" r="5.07203" fill="#25356A" fill-opacity="0.35"/>
<circle cx="207.114" cy="343.683" r="5.07203" fill="#25356A" fill-opacity="0.35"/>
<circle cx="224.021" cy="343.683" r="5.07203" fill="#25356A" fill-opacity="0.35"/>
<circle cx="240.928" cy="343.683" r="5.07203" fill="#25356A" fill-opacity="0.35"/>
<circle cx="257.835" cy="343.683" r="5.07203" fill="#25356A" fill-opacity="0.35"/>
<circle cx="274.742" cy="343.683" r="5.07203" fill="#25356A" fill-opacity="0.35"/>
<circle cx="291.648" cy="343.683" r="5.07203" fill="#25356A" fill-opacity="0.35"/>
<circle cx="308.555" cy="343.683" r="5.07203" fill="#25356A" fill-opacity="0.35"/>
<circle cx="325.462" cy="343.683" r="5.07203" fill="#25356A" fill-opacity="0.35"/>
<circle cx="342.369" cy="343.683" r="5.07203" fill="#25356A" fill-opacity="0.35"/>
<circle cx="359.275" cy="343.683" r="5.07203" fill="#25356A" fill-opacity="0.35"/>
<circle cx="376.182" cy="343.683" r="5.07203" fill="#25356A" fill-opacity="0.35"/>
<circle cx="21.1398" cy="360.589" r="5.07203" fill="#25356A" fill-opacity="0.35"/>
<circle cx="38.0466" cy="360.589" r="5.07203" fill="#25356A" fill-opacity="0.35"/>
<circle cx="54.9534" cy="360.589" r="5.07203" fill="#25356A" fill-opacity="0.35"/>
<circle cx="71.8602" cy="360.589" r="5.07203" fill="#25356A" fill-opacity="0.35"/>
<circle cx="88.767" cy="360.589" r="5.07203" fill="#25356A" fill-opacity="0.35"/>
<circle cx="105.674" cy="360.589" r="5.07203" fill="#25356A" fill-opacity="0.35"/>
<circle cx="122.581" cy="360.589" r="5.07203" fill="#25356A" fill-opacity="0.35"/>
<circle cx="139.487" cy="360.589" r="5.07203" fill="#25356A" fill-opacity="0.35"/>
<circle cx="156.394" cy="360.589" r="5.07203" fill="#25356A" fill-opacity="0.35"/>
<circle cx="173.301" cy="360.589" r="5.07203" fill="#25356A" fill-opacity="0.35"/>
<circle cx="190.208" cy="360.589" r="5.07203" fill="#25356A" fill-opacity="0.35"/>
<circle cx="207.114" cy="360.589" r="5.07203" fill="#25356A" fill-opacity="0.35"/>
<circle cx="224.021" cy="360.589" r="5.07203" fill="#25356A" fill-opacity="0.35"/>
<circle cx="240.928" cy="360.589" r="5.07203" fill="#25356A" fill-opacity="0.35"/>
<circle cx="257.835" cy="360.589" r="5.07203" fill="#25356A" fill-opacity="0.35"/>
<circle cx="274.742" cy="360.589" r="5.07203" fill="#25356A" fill-opacity="0.35"/>
<circle cx="291.648" cy="360.589" r="5.07203" fill="#25356A" fill-opacity="0.35"/>
<circle cx="308.555" cy="360.589" r="5.07203" fill="#25356A" fill-opacity="0.35"/>
<circle cx="325.462" cy="360.589" r="5.07203" fill="#25356A" fill-opacity="0.35"/>
<circle cx="342.369" cy="360.589" r="5.07203" fill="#25356A" fill-opacity="0.35"/>
<circle cx="359.275" cy="360.589" r="5.07203" fill="#25356A" fill-opacity="0.35"/>
<circle cx="376.182" cy="360.589" r="5.07203" fill="#25356A" fill-opacity="0.35"/>
<circle cx="21.1398" cy="377.496" r="5.07203" fill="#25356A" fill-opacity="0.35"/>
<circle cx="38.0466" cy="377.496" r="5.07203" fill="#25356A" fill-opacity="0.35"/>
<circle cx="54.9534" cy="377.496" r="5.07203" fill="#25356A" fill-opacity="0.35"/>
<circle cx="71.8602" cy="377.496" r="5.07203" fill="#25356A" fill-opacity="0.35"/>
<circle cx="88.767" cy="377.496" r="5.07203" fill="#25356A" fill-opacity="0.35"/>
<circle cx="105.674" cy="377.496" r="5.07203" fill="#25356A" fill-opacity="0.35"/>
<circle cx="122.581" cy="377.496" r="5.07203" fill="#25356A" fill-opacity="0.35"/>
<circle cx="139.487" cy="377.496" r="5.07203" fill="#25356A" fill-opacity="0.35"/>
<circle cx="156.394" cy="377.496" r="5.07203" fill="#25356A" fill-opacity="0.35"/>
<circle cx="173.301" cy="377.496" r="5.07203" fill="#25356A" fill-opacity="0.35"/>
<circle cx="190.208" cy="377.496" r="5.07203" fill="#25356A" fill-opacity="0.35"/>
<circle cx="207.114" cy="377.496" r="5.07203" fill="#25356A" fill-opacity="0.35"/>
<circle cx="224.021" cy="377.496" r="5.07203" fill="#25356A" fill-opacity="0.35"/>
<circle cx="240.928" cy="377.496" r="5.07203" fill="#25356A" fill-opacity="0.35"/>
<circle cx="257.835" cy="377.496" r="5.07203" fill="#25356A" fill-opacity="0.35"/>
<circle cx="274.742" cy="377.496" r="5.07203" fill="#25356A" fill-opacity="0.35"/>
<circle cx="291.648" cy="377.496" r="5.07203" fill="#25356A" fill-opacity="0.35"/>
<circle cx="308.555" cy="377.496" r="5.07203" fill="#25356A" fill-opacity="0.35"/>
<circle cx="325.462" cy="377.496" r="5.07203" fill="#25356A" fill-opacity="0.35"/>
<circle cx="342.369" cy="377.496" r="5.07203" fill="#25356A" fill-opacity="0.35"/>
<circle cx="359.275" cy="377.496" r="5.07203" fill="#25356A" fill-opacity="0.35"/>
<circle cx="376.182" cy="377.496" r="5.07203" fill="#25356A" fill-opacity="0.35"/>
<circle cx="21.1398" cy="394.403" r="5.07203" fill="#25356A" fill-opacity="0.35"/>
<circle cx="38.0466" cy="394.403" r="5.07203" fill="#25356A" fill-opacity="0.35"/>
<circle cx="54.9534" cy="394.403" r="5.07203" fill="#25356A" fill-opacity="0.35"/>
<circle cx="71.8602" cy="394.403" r="5.07203" fill="#25356A" fill-opacity="0.35"/>
<circle cx="88.767" cy="394.403" r="5.07203" fill="#25356A" fill-opacity="0.35"/>
<circle cx="105.674" cy="394.403" r="5.07203" fill="#25356A" fill-opacity="0.35"/>
<circle cx="122.581" cy="394.403" r="5.07203" fill="#25356A" fill-opacity="0.35"/>
<circle cx="139.487" cy="394.403" r="5.07203" fill="#25356A" fill-opacity="0.35"/>
<circle cx="156.394" cy="394.403" r="5.07203" fill="#25356A" fill-opacity="0.35"/>
<circle cx="173.301" cy="394.403" r="5.07203" fill="#25356A" fill-opacity="0.35"/>
<circle cx="190.208" cy="394.403" r="5.07203" fill="#25356A" fill-opacity="0.35"/>
<circle cx="207.114" cy="394.403" r="5.07203" fill="#25356A" fill-opacity="0.35"/>
<circle cx="224.021" cy="394.403" r="5.07203" fill="#25356A" fill-opacity="0.35"/>
<circle cx="240.928" cy="394.403" r="5.07203" fill="#25356A" fill-opacity="0.35"/>
<circle cx="257.835" cy="394.403" r="5.07203" fill="#25356A" fill-opacity="0.35"/>
<circle cx="274.742" cy="394.403" r="5.07203" fill="#25356A" fill-opacity="0.35"/>
<circle cx="291.648" cy="394.403" r="5.07203" fill="#25356A" fill-opacity="0.35"/>
<circle cx="308.555" cy="394.403" r="5.07203" fill="#25356A" fill-opacity="0.35"/>
<circle cx="325.462" cy="394.403" r="5.07203" fill="#25356A" fill-opacity="0.35"/>
<circle cx="342.369" cy="394.403" r="5.07203" fill="#25356A" fill-opacity="0.35"/>
<circle cx="359.275" cy="394.403" r="5.07203" fill="#25356A" fill-opacity="0.35"/>
<circle cx="376.182" cy="394.403" r="5.07203" fill="#25356A" fill-opacity="0.35"/>
</g>
<g opacity="0.91" filter="url(#filter1_d)">
<path d="M337.447 196.59C94.6277 -16.1479 7.29578 99.8025 -0.428955 111.258C-0.851318 111.884 -0.996399 112.538 -0.98938 113.294L0.917969 318.474C2.30814 468.019 127.637 597.342 264.543 537.154C334.772 506.279 399.03 456.027 427.005 374.317C466.397 259.26 357.11 213.817 337.447 196.59Z" fill="#6FCF97"/>
</g>
<defs>
<filter id="filter0_d" x="-16.9559" y="33.5088" width="549.293" height="595.581" filterUnits="userSpaceOnUse" color-interpolation-filters="sRGB">
<feFlood flood-opacity="0" result="BackgroundImageFix"/>
<feColorMatrix in="SourceAlpha" type="matrix" values="0 0 0 0 0 0 0 0 0 0 0 0 0 0 0 0 0 0 127 0"/>
<feOffset dx="20.4354" dy="20.4354"/>
<feGaussianBlur stdDeviation="28.2009"/>
<feColorMatrix type="matrix" values="0 0 0 0 0 0 0 0 0 0 0 0 0 0 0 0 0 0 0.04 0"/>
<feBlend mode="normal" in2="BackgroundImageFix" result="effect1_dropShadow"/>
<feBlend mode="normal" in="SourceGraphic" in2="effect1_dropShadow" result="shape"/>
</filter>
<filter id="filter1_d" x="-36.9559" y="33.5088" width="549.293" height="595.581" filterUnits="userSpaceOnUse" color-interpolation-filters="sRGB">
<feFlood flood-opacity="0" result="BackgroundImageFix"/>
<feColorMatrix in="SourceAlpha" type="matrix" values="0 0 0 0 0 0 0 0 0 0 0 0 0 0 0 0 0 0 127 0"/>
<feOffset dx="20.4354" dy="20.4354"/>
<feGaussianBlur stdDeviation="28.2009"/>
<feColorMatrix type="matrix" values="0 0 0 0 0 0 0 0 0 0 0 0 0 0 0 0 0 0 0.04 0"/>
<feBlend mode="normal" in2="BackgroundImageFix" result="effect1_dropShadow"/>
<feBlend mode="normal" in="SourceGraphic" in2="effect1_dropShadow" result="shape"/>
</filter>
</defs>
</svg>
