<svg width="118" height="339" viewBox="0 0 118 339" fill="none" xmlns="http://www.w3.org/2000/svg">
<path d="M87.9039 33.7072C87.9039 33.7072 87.9039 26.456 77.7488 16.3184C67.5936 6.1808 61.0816 0.372803 61.0816 0.372803C61.0816 0.372803 55.9952 17.04 65.4288 27.1952C72.358 34.3488 79.8762 40.9073 87.9039 46.8016V33.7072Z" fill="#92E3A9"/>
<path d="M73.1724 78.992C73.1724 78.992 73.1724 71.7408 63.0172 61.5856C52.862 51.4304 46.35 45.64 46.35 45.64C46.35 45.64 41.2812 62.3072 50.6972 72.4624C57.635 79.6124 65.1523 86.1761 73.1724 92.0864V78.992Z" fill="#92E3A9"/>
<path d="M87.2526 46.0624C87.2526 46.0624 88.027 38.8464 99.1854 29.8176C110.344 20.7888 117.454 15.7376 117.454 15.7376C117.454 15.7376 120.728 32.8976 110.291 41.944C102.644 48.3104 94.4785 54.0268 85.8798 59.0336L87.2526 46.0624Z" fill="#92E3A9"/>
<path d="M69.4587 99.5312C69.4587 99.5312 70.9899 92.4913 83.0283 84.6416C95.0667 76.792 102.652 72.5328 102.652 72.5328C102.652 72.5328 104.113 89.904 92.8315 97.8592C84.5624 103.386 75.8431 108.208 66.7659 112.274L69.4587 99.5312Z" fill="#92E3A9"/>
<path d="M72.8203 157.805C72.8203 157.805 72.8203 150.554 82.9579 140.416C93.0955 130.278 99.6251 124.47 99.6251 124.47C99.6251 124.47 104.711 141.155 95.2779 151.293C88.3595 158.456 80.8467 165.021 72.8203 170.917V157.805Z" fill="#92E3A9"/>
<path d="M72.6444 172.043C72.6444 172.043 73.6652 164.862 65.0588 153.387C56.4524 141.912 50.838 135.224 50.838 135.224C50.838 135.224 43.4812 151.064 51.3484 162.398C57.1968 170.449 63.708 177.996 70.814 184.962L72.6444 172.043Z" fill="#92E3A9"/>
<path d="M62.6309 214.195C62.6309 214.195 62.6308 206.962 72.7861 196.806C82.9413 186.651 89.4533 180.966 89.4533 180.966C89.4533 180.966 94.5397 197.634 85.1061 207.771C78.1775 214.931 70.6593 221.495 62.6309 227.395V214.195Z" fill="#92E3A9"/>
<path d="M69.4059 252.44C69.4059 252.44 67.6459 245.4 74.8443 233.08C82.0427 220.76 86.9355 213.456 86.9355 213.456C86.9355 213.456 96.0523 228.31 89.5227 240.507C84.6243 249.175 79.0079 257.418 72.7323 265.147L69.4059 252.44Z" fill="#92E3A9"/>
<path d="M88.8188 31.912C88.3064 39.455 87.3781 46.9641 86.0381 54.4048C82.0253 75.1376 71.9581 88.5136 67.9805 107.205C64.0029 125.896 75.4957 150.061 72.4157 174.085C69.3357 198.109 59.9549 211.502 62.5949 227.554C65.2349 243.605 79.3149 287.042 79.3149 287.042" stroke="#263238" stroke-width="1.78978" stroke-linecap="round" stroke-linejoin="round"/>
<path d="M87.1654 50.8848L98.0949 42.472" stroke="#263238" stroke-width="1.78978" stroke-linecap="round" stroke-linejoin="round"/>
<path d="M87.6578 41.2224L83.0992 33.0736" stroke="#263238" stroke-width="1.78978" stroke-linecap="round" stroke-linejoin="round"/>
<path d="M68.5964 106.36C68.5964 106.36 77.7485 99.4784 87.1646 92.6144" stroke="#263238" stroke-width="1.78978" stroke-linecap="round" stroke-linejoin="round"/>
<path d="M73.1725 91.9984C73.1725 91.9984 65.5342 77.0384 56.8926 67.112" stroke="#263238" stroke-width="1.78978" stroke-linecap="round" stroke-linejoin="round"/>
<path d="M73.1731 168.118C78.4169 158.488 85.0267 149.667 92.7971 141.93" stroke="#263238" stroke-width="1.78978" stroke-linecap="round" stroke-linejoin="round"/>
<path d="M71.3949 178.291C68.5881 171.743 65.2444 165.438 61.398 159.442C56.118 151.557 55.2732 150.536 55.2732 150.536" stroke="#263238" stroke-width="1.78978" stroke-linecap="round" stroke-linejoin="round"/>
<path d="M62.6309 227.536C64.955 221.773 67.7145 216.195 70.8853 210.851C74.0513 205.875 77.6183 201.166 81.5509 196.771" stroke="#263238" stroke-width="1.78978" stroke-linecap="round" stroke-linejoin="round"/>
<path d="M72.7144 265.059C72.1834 259.56 73.1312 254.018 75.46 249.008C79.2791 241.634 83.5912 231.954 85.3864 228.152" stroke="#263238" stroke-width="1.78978" stroke-linecap="round" stroke-linejoin="round"/>
<path d="M21.4466 130.542C21.4466 130.542 20.6546 126.019 25.917 118.539C31.1794 111.059 34.717 106.712 34.717 106.712C34.717 106.712 39.6978 116.603 34.893 123.995C31.3233 129.227 27.3199 134.149 22.925 138.709L21.4466 130.542Z" fill="#92E3A9"/>
<path d="M35.597 157.4C35.597 157.4 34.805 152.842 40.0674 145.379C45.3298 137.917 48.8674 133.57 48.8674 133.57C48.8674 133.57 53.8482 143.478 49.0434 150.853C45.4782 156.088 41.4744 161.01 37.0754 165.566L35.597 157.4Z" fill="#92E3A9"/>
<path d="M23.1886 138.216C23.1886 138.216 21.9566 133.781 13.9486 129.416C5.94061 125.051 0.959811 122.552 0.959811 122.552C0.959811 122.552 0.766199 133.587 8.31659 138.216C13.8004 141.379 19.5407 144.076 25.4766 146.277L23.1886 138.216Z" fill="#92E3A9"/>
<path d="M40.1551 169.808C40.1551 169.808 38.3951 165.531 30.0176 161.958C21.64 158.386 16.3776 156.502 16.3776 156.502C16.3776 156.502 17.3455 167.538 25.3183 171.304C31.1069 173.871 37.1001 175.949 43.2351 177.517L40.1551 169.808Z" fill="#92E3A9"/>
<path d="M44.3793 206.68C44.3793 206.68 43.5873 202.139 36.1249 196.877C28.6626 191.614 23.9282 188.675 23.9282 188.675C23.9282 188.675 22.5554 199.711 29.5778 205.026C34.6956 208.744 40.118 212.023 45.7873 214.829L44.3793 206.68Z" fill="#92E3A9"/>
<path d="M46.0159 215.638C46.0159 215.638 44.5902 211.256 48.7439 203.125C52.8975 194.994 55.7839 190.189 55.7839 190.189C55.7839 190.189 62.1199 199.27 58.4239 207.278C55.6055 212.961 52.3206 218.401 48.6031 223.541L46.0159 215.638Z" fill="#92E3A9"/>
<path d="M58.758 252.299C58.758 252.299 59.286 247.723 66.4316 242.038C73.5772 236.354 78.1357 233.238 78.1357 233.238C78.1357 233.238 80.142 244.15 73.4364 249.888C68.5391 253.893 63.3174 257.484 57.8252 260.624L58.758 252.299Z" fill="#92E3A9"/>
<path d="M56.8754 241C56.8754 241 56.0834 236.442 48.6211 231.179C41.1587 225.917 36.442 222.995 36.442 222.995C36.442 222.995 35.0692 234.03 42.0739 239.346C47.1995 243.061 52.6276 246.34 58.301 249.149L56.8754 241Z" fill="#92E3A9"/>
<path d="M56.7691 265.71C56.7691 265.71 57.1739 261.099 51.278 254.13C45.382 247.16 41.5628 243.094 41.5628 243.094C41.5628 243.094 37.4444 253.39 42.8828 260.342C46.8996 265.245 51.3146 269.807 56.0828 273.982L56.7691 265.71Z" fill="#92E3A9"/>
<path d="M20.6548 129.486C21.8003 134.166 23.2046 138.778 24.8612 143.302C29.6132 155.851 37.3572 163.155 41.898 174.454C46.4388 185.754 41.898 202.139 46.386 216.87C50.874 231.602 58.266 238.941 58.3188 249.342C58.3716 259.744 54.3588 288.485 54.3588 288.485" stroke="#263238" stroke-width="1.78978" stroke-linecap="round" stroke-linejoin="round"/>
<path d="M23.7697 141.226L16.0081 137.16" stroke="#263238" stroke-width="1.78978" stroke-linecap="round" stroke-linejoin="round"/>
<path d="M22.3962 135.224L24.385 129.627" stroke="#263238" stroke-width="1.78978" stroke-linecap="round" stroke-linejoin="round"/>
<path d="M41.4402 173.979C41.4402 173.979 34.9458 170.67 28.3105 167.379" stroke="#263238" stroke-width="1.78978" stroke-linecap="round" stroke-linejoin="round"/>
<path d="M37.005 165.566C38.914 159.542 41.432 153.727 44.5201 148.213" stroke="#263238" stroke-width="1.78978" stroke-linecap="round" stroke-linejoin="round"/>
<path d="M45.276 213.227C40.9452 207.759 35.8472 202.946 30.14 198.936" stroke="#263238" stroke-width="1.78978" stroke-linecap="round" stroke-linejoin="round"/>
<path d="M47.4948 219.422C48.5227 215.025 49.918 210.721 51.666 206.557C54.1124 201.013 54.5348 200.291 54.5348 200.291" stroke="#263238" stroke-width="1.78978" stroke-linecap="round" stroke-linejoin="round"/>
<path d="M57.9841 257.192C60.5026 254.064 63.2944 251.166 66.3265 248.533C68.2574 247.102 70.0703 245.519 71.7474 243.798" stroke="#263238" stroke-width="1.78978" stroke-linecap="round" stroke-linejoin="round"/>
<path d="M58.3185 249.342C56.2149 245.985 53.8616 242.79 51.2785 239.786C48.7511 237.025 46.0022 234.477 43.0593 232.165" stroke="#263238" stroke-width="1.78978" stroke-linecap="round" stroke-linejoin="round"/>
<path d="M56.1182 273.982C55.8382 270.46 54.6231 267.075 52.5982 264.179C49.395 259.955 45.5582 254.358 44.115 252.158" stroke="#263238" stroke-width="1.78978" stroke-linecap="round" stroke-linejoin="round"/>
<path d="M89.8754 338.046H43.6578C42.7393 338.047 41.857 337.688 41.1993 337.047C40.5417 336.405 40.1608 335.533 40.1378 334.614L33.5026 283.469H99.8898L93.2546 334.614C93.2329 335.509 92.8715 336.361 92.2439 336.999C91.6162 337.636 90.7693 338.011 89.8754 338.046Z" fill="#263238"/>
<path d="M99.361 292.11H33.5723C32.203 292.115 30.8876 291.577 29.9144 290.614C28.9413 289.65 28.3896 288.34 28.3802 286.971V286.971C28.4028 285.604 28.9546 284.299 29.9197 283.331C30.8848 282.363 32.1878 281.806 33.5546 281.779H99.361C100.042 281.777 100.717 281.909 101.347 282.168C101.976 282.427 102.549 282.808 103.031 283.288C103.514 283.769 103.896 284.34 104.157 284.969C104.419 285.598 104.553 286.273 104.553 286.954V286.954C104.551 287.633 104.415 288.306 104.152 288.932C103.89 289.559 103.507 290.128 103.025 290.607C102.543 291.086 101.971 291.465 101.343 291.723C100.714 291.981 100.041 292.113 99.361 292.11V292.11Z" fill="#263238"/>
</svg>
