<svg width="714" height="760" viewBox="0 0 714 760" fill="none" xmlns="http://www.w3.org/2000/svg">
<g clip-path="url(#clip0)">
<mask id="mask0" mask-type="alpha" maskUnits="userSpaceOnUse" x="242" y="-80" width="920" height="848">
<path d="M674.592 684.196C852.431 731.005 1010.13 543.421 1066.75 443.778C1077.72 426.812 1099.87 377.232 1100.74 314.638C1101.83 236.395 942.833 237.763 888.666 199.261C834.5 160.76 796.29 81.6595 717.506 14.5425C638.721 -52.5745 547.427 1.92664 521.817 93.2174C496.208 184.508 343.696 91.1339 317.173 296.027C290.65 500.92 452.293 625.686 674.592 684.196Z" fill="#0B56FA"/>
</mask>
<g mask="url(#mask0)">
<rect x="361.307" y="-250.32" width="1256.55" height="8.35841" transform="rotate(36.8196 361.307 -250.32)" fill="#25356A" fill-opacity="0.05"/>
<rect x="347.948" y="-232.478" width="1256.55" height="8.35841" transform="rotate(36.8196 347.948 -232.478)" fill="#25356A" fill-opacity="0.05"/>
<rect x="334.591" y="-214.635" width="1256.55" height="8.35841" transform="rotate(36.8196 334.591 -214.635)" fill="#25356A" fill-opacity="0.05"/>
<rect x="321.232" y="-196.792" width="1256.55" height="8.35841" transform="rotate(36.8196 321.232 -196.792)" fill="#25356A" fill-opacity="0.05"/>
<rect x="307.875" y="-178.948" width="1256.55" height="8.35841" transform="rotate(36.8196 307.875 -178.948)" fill="#25356A" fill-opacity="0.05"/>
<rect x="294.517" y="-161.105" width="1256.55" height="8.35841" transform="rotate(36.8196 294.517 -161.105)" fill="#25356A" fill-opacity="0.05"/>
<rect x="281.159" y="-143.262" width="1256.55" height="8.35841" transform="rotate(36.8196 281.159 -143.262)" fill="#25356A" fill-opacity="0.05"/>
<rect x="267.802" y="-125.419" width="1256.55" height="8.35841" transform="rotate(36.8196 267.802 -125.419)" fill="#25356A" fill-opacity="0.05"/>
<rect x="254.444" y="-107.576" width="1256.55" height="8.35841" transform="rotate(36.8196 254.444 -107.576)" fill="#25356A" fill-opacity="0.05"/>
<rect x="241.086" y="-89.7334" width="1256.55" height="8.35841" transform="rotate(36.8196 241.086 -89.7334)" fill="#25356A" fill-opacity="0.05"/>
<rect x="227.728" y="-71.8904" width="1256.55" height="8.35841" transform="rotate(36.8196 227.728 -71.8904)" fill="#25356A" fill-opacity="0.05"/>
<rect x="214.37" y="-54.0474" width="1256.55" height="8.35841" transform="rotate(36.8196 214.37 -54.0474)" fill="#25356A" fill-opacity="0.05"/>
<rect x="201.012" y="-36.2043" width="1256.55" height="8.35841" transform="rotate(36.8196 201.012 -36.2043)" fill="#25356A" fill-opacity="0.05"/>
<rect x="187.655" y="-18.3613" width="1256.55" height="8.35841" transform="rotate(36.8196 187.655 -18.3613)" fill="#25356A" fill-opacity="0.05"/>
<rect x="174.297" y="-0.518311" width="1256.55" height="8.35841" transform="rotate(36.8196 174.297 -0.518311)" fill="#25356A" fill-opacity="0.05"/>
<rect x="160.939" y="17.3246" width="1256.55" height="8.35841" transform="rotate(36.8196 160.939 17.3246)" fill="#25356A" fill-opacity="0.05"/>
<rect x="147.581" y="35.1677" width="1256.55" height="8.35841" transform="rotate(36.8196 147.581 35.1677)" fill="#25356A" fill-opacity="0.05"/>
<rect x="134.224" y="53.0107" width="1256.55" height="8.35841" transform="rotate(36.8196 134.224 53.0107)" fill="#25356A" fill-opacity="0.05"/>
<rect x="120.866" y="70.8537" width="1256.55" height="8.35841" transform="rotate(36.8196 120.866 70.8537)" fill="#25356A" fill-opacity="0.05"/>
<rect x="107.508" y="88.6968" width="1256.55" height="8.35841" transform="rotate(36.8196 107.508 88.6968)" fill="#25356A" fill-opacity="0.05"/>
<rect x="94.1503" y="106.54" width="1256.55" height="8.35841" transform="rotate(36.8196 94.1503 106.54)" fill="#25356A" fill-opacity="0.05"/>
<rect x="79.1227" y="126.613" width="1256.55" height="8.35841" transform="rotate(36.8196 79.1227 126.613)" fill="#25356A" fill-opacity="0.05"/>
<rect x="64.0952" y="146.687" width="1256.55" height="8.35841" transform="rotate(36.8196 64.0952 146.687)" fill="#25356A" fill-opacity="0.05"/>
<rect x="49.0676" y="166.76" width="1256.55" height="8.35841" transform="rotate(36.8196 49.0676 166.76)" fill="#25356A" fill-opacity="0.05"/>
<rect x="34.0401" y="186.833" width="1256.55" height="8.35841" transform="rotate(36.8196 34.0401 186.833)" fill="#25356A" fill-opacity="0.05"/>
<rect x="19.0131" y="206.907" width="1256.55" height="8.35841" transform="rotate(36.8196 19.0131 206.907)" fill="#25356A" fill-opacity="0.05"/>
<rect x="3.98547" y="226.98" width="1256.55" height="8.35841" transform="rotate(36.8196 3.98547 226.98)" fill="#25356A" fill-opacity="0.05"/>
</g>
<path d="M505.415 97.0216C472.249 115.991 448.856 147.896 420.508 173.508C385.249 205.239 342.335 227.241 295.99 237.348C257.99 245.571 218.287 245.693 181.67 258.628C110.23 283.693 61.3017 358.082 60.0705 433.717C58.8393 509.352 101.87 582.677 165.118 624.142C186.658 638.272 210.239 649.011 235.038 655.986C281.55 669.074 330.874 668.496 378.936 663.495C461.958 654.846 548.994 607.696 601.327 541.226C624.655 511.518 644.371 479.143 660.06 444.782C685.979 388.283 700.7 327.296 703.411 265.194C705.615 211.994 703.411 153.018 661.2 114.243C618.99 75.468 554.891 68.704 505.415 97.0216Z" fill="#92E3A9"/>
<path opacity="0.7" d="M505.415 97.0216C472.249 115.991 448.856 147.896 420.508 173.508C385.249 205.239 342.335 227.241 295.99 237.348C257.99 245.571 218.287 245.693 181.67 258.628C110.23 283.693 61.3017 358.082 60.0705 433.717C58.8393 509.352 101.87 582.677 165.118 624.142C186.658 638.272 210.239 649.011 235.038 655.986C281.55 669.074 330.874 668.496 378.936 663.495C461.958 654.846 548.994 607.696 601.327 541.226C624.655 511.518 644.371 479.143 660.06 444.782C685.979 388.283 700.7 327.296 703.411 265.194C705.615 211.994 703.411 153.018 661.2 114.243C618.99 75.468 554.891 68.704 505.415 97.0216Z" fill="white"/>
<path d="M557.998 702.67C617.935 702.67 666.523 689.583 666.523 673.44C666.523 657.297 617.935 644.21 557.998 644.21C498.062 644.21 449.474 657.297 449.474 673.44C449.474 689.583 498.062 702.67 557.998 702.67Z" fill="#ECECEC"/>
<path d="M451.38 103.816H130.918C123.405 103.816 117.314 109.907 117.314 117.42V297.069C117.314 304.582 123.405 310.673 130.918 310.673H451.38C458.893 310.673 464.984 304.582 464.984 297.069V117.42C464.984 109.907 458.893 103.816 451.38 103.816Z" fill="white"/>
<path d="M464.984 117.42V122.801H117.314V117.42C117.314 113.805 118.745 110.337 121.294 107.774C123.843 105.21 127.303 103.76 130.918 103.74H451.44C453.229 103.746 454.998 104.105 456.648 104.796C458.297 105.487 459.794 106.497 461.052 107.768C462.31 109.039 463.305 110.546 463.98 112.202C464.654 113.859 464.996 115.632 464.984 117.42Z" fill="#92E3A9"/>
<path d="M451.38 103.816H130.918C123.405 103.816 117.314 109.907 117.314 117.42V297.069C117.314 304.582 123.405 310.673 130.918 310.673H451.38C458.893 310.673 464.984 304.582 464.984 297.069V117.42C464.984 109.907 458.893 103.816 451.38 103.816Z" stroke="#263238" stroke-width="1.52" stroke-linecap="round" stroke-linejoin="round"/>
<path d="M464.984 117.42V122.801H117.314V117.42C117.314 113.805 118.745 110.337 121.294 107.774C123.843 105.21 127.303 103.76 130.918 103.74H451.44C453.229 103.746 454.998 104.105 456.648 104.796C458.297 105.487 459.794 106.497 461.052 107.768C462.31 109.039 463.305 110.546 463.98 112.202C464.654 113.859 464.996 115.632 464.984 117.42V117.42Z" stroke="#263238" stroke-width="1.52" stroke-linecap="round" stroke-linejoin="round"/>
<path d="M156.362 113.301C156.365 113.99 156.164 114.664 155.783 115.239C155.402 115.813 154.86 116.262 154.224 116.527C153.588 116.793 152.888 116.864 152.212 116.732C151.536 116.599 150.914 116.269 150.426 115.783C149.937 115.296 149.604 114.676 149.469 114.001C149.333 113.325 149.401 112.624 149.664 111.987C149.927 111.351 150.373 110.806 150.946 110.423C151.519 110.04 152.192 109.835 152.881 109.835C153.802 109.835 154.685 110.2 155.337 110.849C155.99 111.499 156.358 112.38 156.362 113.301Z" fill="#263238"/>
<path d="M174.527 113.301C174.53 113.99 174.328 114.664 173.948 115.239C173.567 115.813 173.024 116.262 172.389 116.527C171.753 116.793 171.053 116.864 170.376 116.732C169.7 116.599 169.079 116.269 168.59 115.783C168.102 115.296 167.769 114.676 167.633 114.001C167.498 113.325 167.566 112.624 167.829 111.987C168.092 111.351 168.538 110.806 169.111 110.423C169.683 110.04 170.357 109.835 171.046 109.835C171.967 109.835 172.85 110.2 173.502 110.849C174.154 111.499 174.523 112.38 174.527 113.301Z" fill="#263238"/>
<path d="M189.209 116.782C191.132 116.782 192.69 115.223 192.69 113.301C192.69 111.378 191.132 109.82 189.209 109.82C187.287 109.82 185.728 111.378 185.728 113.301C185.728 115.223 187.287 116.782 189.209 116.782Z" fill="#263238"/>
<path d="M241.832 137.864H143.534C140.436 137.864 137.925 140.375 137.925 143.473V190.76C137.925 193.858 140.436 196.369 143.534 196.369H241.832C244.93 196.369 247.441 193.858 247.441 190.76V143.473C247.441 140.375 244.93 137.864 241.832 137.864Z" stroke="#263238" stroke-width="1.52" stroke-linecap="round" stroke-linejoin="round"/>
<path d="M144.37 189.012H239.324" stroke="#263238" stroke-width="1.52" stroke-linecap="round" stroke-linejoin="round"/>
<path d="M162.443 177.84H151.423V188.86H162.443V177.84Z" fill="#92E3A9" stroke="#263238" stroke-width="1.52" stroke-miterlimit="10"/>
<path d="M178.57 163.354H167.55V189.012H178.57V163.354Z" fill="#92E3A9" stroke="#263238" stroke-width="1.52" stroke-miterlimit="10"/>
<path d="M196.734 167.762H185.714V189.27H196.734V167.762Z" fill="#92E3A9" stroke="#263238" stroke-width="1.52" stroke-miterlimit="10"/>
<path d="M215.825 146.346H204.805V188.526H215.825V146.346Z" fill="#92E3A9" stroke="#263238" stroke-width="1.52" stroke-miterlimit="10"/>
<path d="M234.901 146.68H223.881V188.86H234.901V146.68Z" fill="#92E3A9" stroke="#263238" stroke-width="1.52" stroke-miterlimit="10"/>
<path d="M383.222 199.394C400.239 199.394 414.033 185.599 414.033 168.583C414.033 151.567 400.239 137.773 383.222 137.773C366.206 137.773 352.412 151.567 352.412 168.583C352.412 185.599 366.206 199.394 383.222 199.394Z" fill="#92E3A9" stroke="#263238" stroke-width="1.52" stroke-miterlimit="10"/>
<path d="M385.746 187.796V190.958H380.578V187.796C378.456 187.283 376.579 186.046 375.269 184.298C373.96 182.55 373.3 180.401 373.404 178.22V176.791L379.256 176.153V177.673C379.256 180.606 380.776 182.385 383.162 182.385C383.68 182.428 384.201 182.358 384.69 182.181C385.178 182.003 385.623 181.722 385.992 181.357C386.362 180.992 386.648 180.551 386.831 180.064C387.015 179.578 387.09 179.058 387.053 178.539C387.053 175.727 384.424 173.31 381.323 170.742C377.645 167.702 373.981 164.084 373.981 158.977C373.981 153.87 376.383 150.419 380.578 149.386V146.209H385.746V149.355C389.987 150.343 392.449 153.915 392.449 159.007V160.041L386.597 160.664V159.6C386.597 156.56 385.397 154.888 383.269 154.888C381.141 154.888 379.94 156.21 379.94 158.734C379.94 161.546 382.646 163.902 385.686 166.531C389.303 169.571 393.027 173.189 393.027 178.296C393.116 180.481 392.437 182.628 391.106 184.364C389.776 186.1 387.879 187.314 385.746 187.796Z" fill="#263238"/>
<path d="M135.371 226.252H144.37" stroke="#263238" stroke-width="1.52" stroke-linecap="round" stroke-linejoin="round"/>
<path d="M135.371 243.641H144.37" stroke="#263238" stroke-width="1.52" stroke-linecap="round" stroke-linejoin="round"/>
<path d="M135.371 261.045H144.37" stroke="#263238" stroke-width="1.52" stroke-linecap="round" stroke-linejoin="round"/>
<path d="M135.371 278.434H144.37" stroke="#263238" stroke-width="1.52" stroke-linecap="round" stroke-linejoin="round"/>
<path d="M164.206 291.566V284.574" stroke="#263238" stroke-width="1.52" stroke-linecap="round" stroke-linejoin="round"/>
<path d="M178.464 291.566V284.574" stroke="#263238" stroke-width="1.52" stroke-linecap="round" stroke-linejoin="round"/>
<path d="M192.721 291.566V284.574" stroke="#263238" stroke-width="1.52" stroke-linecap="round" stroke-linejoin="round"/>
<path d="M206.994 291.566V284.574" stroke="#263238" stroke-width="1.52" stroke-linecap="round" stroke-linejoin="round"/>
<path d="M221.252 291.566V284.574" stroke="#263238" stroke-width="1.52" stroke-linecap="round" stroke-linejoin="round"/>
<path d="M235.509 291.566V284.574" stroke="#263238" stroke-width="1.52" stroke-linecap="round" stroke-linejoin="round"/>
<path d="M249.767 291.566V284.574" stroke="#263238" stroke-width="1.52" stroke-linecap="round" stroke-linejoin="round"/>
<path d="M264.039 291.566V284.574" stroke="#263238" stroke-width="1.52" stroke-linecap="round" stroke-linejoin="round"/>
<path d="M278.298 291.566V284.574" stroke="#263238" stroke-width="1.52" stroke-linecap="round" stroke-linejoin="round"/>
<path d="M292.555 291.566V284.574" stroke="#263238" stroke-width="1.52" stroke-linecap="round" stroke-linejoin="round"/>
<path d="M306.812 291.566V284.574" stroke="#263238" stroke-width="1.52" stroke-linecap="round" stroke-linejoin="round"/>
<path d="M321.086 291.566V284.574" stroke="#263238" stroke-width="1.52" stroke-linecap="round" stroke-linejoin="round"/>
<path d="M335.343 291.566V284.574" stroke="#263238" stroke-width="1.52" stroke-linecap="round" stroke-linejoin="round"/>
<path d="M349.6 291.566V284.574" stroke="#263238" stroke-width="1.52" stroke-linecap="round" stroke-linejoin="round"/>
<path d="M363.858 291.566V284.574" stroke="#263238" stroke-width="1.52" stroke-linecap="round" stroke-linejoin="round"/>
<path d="M377.583 291.566V284.574" stroke="#263238" stroke-width="1.52" stroke-linecap="round" stroke-linejoin="round"/>
<path d="M391.31 291.566V284.574" stroke="#263238" stroke-width="1.52" stroke-linecap="round" stroke-linejoin="round"/>
<path d="M405.02 291.566V284.574" stroke="#263238" stroke-width="1.52" stroke-linecap="round" stroke-linejoin="round"/>
<path d="M441.317 215.612V283.191C441.317 287.827 436.605 291.566 430.799 291.566H145.92C144.185 291.628 142.46 291.288 140.878 290.574C139.296 289.859 137.901 288.789 136.8 287.447C135.849 286.229 135.316 284.736 135.28 283.191V215.612C135.28 211.052 139.992 207.237 145.798 207.237H430.799C436.605 207.237 441.317 210.976 441.317 215.612Z" stroke="#92E3A9" stroke-width="1.52" stroke-linecap="round" stroke-linejoin="round"/>
<path d="M354.616 84.7248L263.674 207.237L228.897 254.083L190.897 229.885L144.4 291.566H143.731C142.273 291.568 140.84 291.188 139.574 290.466C138.308 289.743 137.252 288.703 136.511 287.447L188.754 218.12L226.754 242.273L252.761 207.313L347.594 79.6328L354.616 84.7248Z" fill="#219653"/>
<path d="M331.543 86.2752L364.968 66.0136L355.726 101.065L349.829 84.8464L331.543 86.2752Z" fill="#219653"/>
<path d="M647.869 471.99H113.301L53.3821 525.267" stroke="#27AE60" stroke-width="2.10526" stroke-linecap="round" stroke-linejoin="round"/>
<path d="M113.636 434.69V331.102" stroke="#27AE60" stroke-width="2.10526" stroke-linecap="round" stroke-linejoin="round"/>
<path d="M113.636 465.971V445.938" stroke="#27AE60" stroke-width="2.10526" stroke-linecap="round" stroke-linejoin="round"/>
<path d="M615.69 219.974C615.69 219.974 615.69 213.712 606.919 204.957C598.149 196.202 592.525 191.186 592.525 191.186C592.525 191.186 588.132 205.58 596.28 214.35C602.264 220.528 608.757 226.193 615.69 231.283V219.974Z" fill="#92E3A9"/>
<path d="M602.967 259.084C602.967 259.084 602.967 252.822 594.197 244.051C585.426 235.281 579.802 230.28 579.802 230.28C579.802 230.28 575.425 244.674 583.557 253.445C589.548 259.62 596.041 265.288 602.967 270.393V259.084Z" fill="#92E3A9"/>
<path d="M615.127 230.645C615.127 230.645 615.796 224.413 625.433 216.615C635.07 208.818 641.21 204.455 641.21 204.455C641.21 204.455 644.038 219.275 635.024 227.088C628.42 232.586 621.368 237.523 613.942 241.847L615.127 230.645Z" fill="#92E3A9"/>
<path d="M599.76 276.822C599.76 276.822 601.082 270.742 611.479 263.963C621.876 257.184 628.427 253.506 628.427 253.506C628.427 253.506 629.689 268.508 619.945 275.378C612.804 280.152 605.274 284.316 597.434 287.827L599.76 276.822Z" fill="#92E3A9"/>
<path d="M602.663 327.15C602.663 327.15 602.663 320.887 611.418 312.132C620.173 303.377 625.812 298.361 625.812 298.361C625.812 298.361 630.205 312.77 622.058 321.526C616.083 327.712 609.595 333.382 602.663 338.474V327.15Z" fill="#92E3A9"/>
<path d="M602.511 339.446C602.511 339.446 603.393 333.245 595.96 323.334C588.527 313.424 583.678 307.648 583.678 307.648C583.678 307.648 577.325 321.328 584.119 331.117C589.17 338.069 594.793 344.588 600.93 350.603L602.511 339.446Z" fill="#92E3A9"/>
<path d="M593.863 375.85C593.863 375.85 593.863 369.603 602.633 360.833C611.404 352.062 617.028 347.153 617.028 347.153C617.028 347.153 621.421 361.547 613.273 370.302C607.29 376.486 600.797 382.155 593.863 387.25V375.85Z" fill="#92E3A9"/>
<path d="M599.714 408.88C599.714 408.88 598.194 402.8 604.411 392.16C610.628 381.52 614.853 375.212 614.853 375.212C614.853 375.212 622.727 388.041 617.088 398.574C612.857 406.061 608.007 413.179 602.587 419.854L599.714 408.88Z" fill="#92E3A9"/>
<path d="M616.48 218.424C616.037 224.938 615.236 231.424 614.078 237.85C610.613 255.755 601.918 267.307 598.483 283.45C595.048 299.592 604.974 320.462 602.314 341.21C599.654 361.958 591.552 373.525 593.832 387.387C596.112 401.25 608.272 438.763 608.272 438.763" stroke="#263238" stroke-width="1.78978" stroke-linecap="round" stroke-linejoin="round"/>
<path d="M615.052 234.81L624.491 227.544" stroke="#263238" stroke-width="1.78978" stroke-linecap="round" stroke-linejoin="round"/>
<path d="M615.477 226.465L611.54 219.427" stroke="#263238" stroke-width="1.78978" stroke-linecap="round" stroke-linejoin="round"/>
<path d="M599.015 282.72C599.015 282.72 606.919 276.777 615.051 270.849" stroke="#263238" stroke-width="1.78978" stroke-linecap="round" stroke-linejoin="round"/>
<path d="M602.967 270.317C602.967 270.317 596.37 257.397 588.907 248.824" stroke="#263238" stroke-width="1.78978" stroke-linecap="round" stroke-linejoin="round"/>
<path d="M602.968 336.057C607.496 327.74 613.205 320.121 619.916 313.439" stroke="#263238" stroke-width="1.78978" stroke-linecap="round" stroke-linejoin="round"/>
<path d="M601.432 344.842C599.008 339.187 596.12 333.742 592.798 328.563C588.238 321.754 587.509 320.872 587.509 320.872" stroke="#263238" stroke-width="1.78978" stroke-linecap="round" stroke-linejoin="round"/>
<path d="M593.863 387.372C595.87 382.395 598.253 377.578 600.992 372.962C603.726 368.665 606.807 364.598 610.203 360.802" stroke="#263238" stroke-width="1.78978" stroke-linecap="round" stroke-linejoin="round"/>
<path d="M602.571 419.778C602.113 415.029 602.932 410.243 604.943 405.916C608.241 399.547 611.965 391.187 613.516 387.904" stroke="#263238" stroke-width="1.78978" stroke-linecap="round" stroke-linejoin="round"/>
<path d="M558.295 303.605C558.295 303.605 557.611 299.698 562.155 293.238C566.7 286.778 569.755 283.024 569.755 283.024C569.755 283.024 574.057 291.566 569.907 297.95C566.825 302.468 563.367 306.719 559.572 310.658L558.295 303.605Z" fill="#92E3A9"/>
<path d="M570.516 326.8C570.516 326.8 569.832 322.863 574.376 316.418C578.921 309.974 581.976 306.219 581.976 306.219C581.976 306.219 586.278 314.777 582.128 321.146C579.049 325.667 575.592 329.918 571.792 333.853L570.516 326.8Z" fill="#92E3A9"/>
<path d="M559.799 310.232C559.799 310.232 558.735 306.402 551.819 302.632C544.903 298.862 540.602 296.704 540.602 296.704C540.602 296.704 540.435 306.234 546.955 310.232C551.691 312.964 556.649 315.293 561.775 317.194L559.799 310.232Z" fill="#92E3A9"/>
<path d="M574.452 337.516C574.452 337.516 572.932 333.822 565.697 330.737C558.462 327.651 553.917 326.025 553.917 326.025C553.917 326.025 554.753 335.555 561.639 338.808C566.638 341.025 571.814 342.82 577.112 344.174L574.452 337.516Z" fill="#92E3A9"/>
<path d="M578.1 369.36C578.1 369.36 577.416 365.438 570.972 360.894C564.527 356.349 560.438 353.81 560.438 353.81C560.438 353.81 559.252 363.341 565.317 367.931C569.737 371.142 574.42 373.974 579.316 376.398L578.1 369.36Z" fill="#92E3A9"/>
<path d="M579.514 377.097C579.514 377.097 578.282 373.312 581.87 366.29C585.457 359.267 587.95 355.118 587.95 355.118C587.95 355.118 593.422 362.961 590.23 369.877C587.796 374.785 584.959 379.483 581.748 383.922L579.514 377.097Z" fill="#92E3A9"/>
<path d="M590.518 408.758C590.518 408.758 590.974 404.806 597.145 399.897C603.317 394.987 607.253 392.297 607.253 392.297C607.253 392.297 608.986 401.721 603.195 406.676C598.966 410.135 594.456 413.236 589.713 415.948L590.518 408.758Z" fill="#92E3A9"/>
<path d="M588.892 399C588.892 399 588.208 395.063 581.764 390.518C575.319 385.974 571.245 383.45 571.245 383.45C571.245 383.45 570.06 392.981 576.109 397.571C580.536 400.78 585.224 403.612 590.124 406.038L588.892 399Z" fill="#92E3A9"/>
<path d="M588.801 420.341C588.801 420.341 589.15 416.358 584.058 410.339C578.966 404.32 575.668 400.809 575.668 400.809C575.668 400.809 572.111 409.701 576.808 415.705C580.277 419.939 584.09 423.879 588.208 427.485L588.801 420.341Z" fill="#92E3A9"/>
<path d="M557.611 302.693C558.6 306.734 559.813 310.718 561.244 314.625C565.348 325.462 572.036 331.77 575.957 341.529C579.879 351.287 575.957 365.438 579.833 378.161C583.709 390.883 590.093 397.222 590.139 406.205C590.185 415.188 586.719 440.01 586.719 440.01" stroke="#263238" stroke-width="1.78978" stroke-linecap="round" stroke-linejoin="round"/>
<path d="M560.301 312.831L553.598 309.32" stroke="#263238" stroke-width="1.78978" stroke-linecap="round" stroke-linejoin="round"/>
<path d="M559.115 307.648L560.832 302.814" stroke="#263238" stroke-width="1.78978" stroke-linecap="round" stroke-linejoin="round"/>
<path d="M575.562 341.118C575.562 341.118 569.953 338.261 564.223 335.418" stroke="#263238" stroke-width="1.78978" stroke-linecap="round" stroke-linejoin="round"/>
<path d="M571.732 333.853C573.38 328.65 575.555 323.628 578.222 318.866" stroke="#263238" stroke-width="1.78978" stroke-linecap="round" stroke-linejoin="round"/>
<path d="M578.875 375.014C575.135 370.292 570.732 366.135 565.803 362.672" stroke="#263238" stroke-width="1.78978" stroke-linecap="round" stroke-linejoin="round"/>
<path d="M580.791 380.365C581.679 376.567 582.884 372.85 584.393 369.254C586.506 364.466 586.871 363.842 586.871 363.842" stroke="#263238" stroke-width="1.78978" stroke-linecap="round" stroke-linejoin="round"/>
<path d="M589.85 412.984C592.025 410.282 594.436 407.78 597.055 405.506C598.722 404.27 600.288 402.903 601.736 401.417" stroke="#263238" stroke-width="1.78978" stroke-linecap="round" stroke-linejoin="round"/>
<path d="M590.139 406.205C588.322 403.305 586.29 400.546 584.059 397.951C581.876 395.567 579.502 393.366 576.96 391.37" stroke="#263238" stroke-width="1.78978" stroke-linecap="round" stroke-linejoin="round"/>
<path d="M588.238 427.485C587.997 424.442 586.947 421.52 585.198 419.018C582.432 415.37 579.118 410.537 577.872 408.637" stroke="#263238" stroke-width="1.78978" stroke-linecap="round" stroke-linejoin="round"/>
<path d="M617.392 482.813H577.477C576.684 482.813 575.922 482.503 575.354 481.949C574.786 481.396 574.457 480.642 574.437 479.849L568.707 435.678H626.041L620.311 479.849C620.292 480.621 619.98 481.358 619.438 481.908C618.896 482.459 618.164 482.782 617.392 482.813Z" fill="#263238"/>
<path d="M625.585 443.141H568.767C567.584 443.145 566.448 442.68 565.608 441.848C564.767 441.016 564.291 439.885 564.283 438.702C564.302 437.522 564.779 436.395 565.612 435.559C566.446 434.722 567.571 434.242 568.752 434.218H625.585C626.173 434.216 626.755 434.331 627.299 434.554C627.843 434.778 628.338 435.107 628.754 435.522C629.171 435.937 629.501 436.43 629.727 436.974C629.952 437.517 630.069 438.099 630.069 438.687C630.067 439.274 629.949 439.855 629.723 440.396C629.496 440.938 629.165 441.429 628.749 441.843C628.333 442.256 627.839 442.584 627.296 442.806C626.753 443.029 626.171 443.143 625.585 443.141Z" fill="#263238"/>
<path d="M497.496 266.471C497.494 278.946 493.265 291.052 485.5 300.815C477.736 310.578 466.892 317.423 454.738 320.234H454.571C453.127 320.553 451.683 320.842 450.193 321.054C447.58 321.426 444.944 321.614 442.305 321.617C427.878 321.565 414.045 315.867 403.767 305.741C393.49 295.616 387.587 281.869 387.32 267.445C387.054 253.02 392.447 239.065 402.343 228.567C412.239 218.069 425.853 211.864 440.268 211.28C440.769 211.28 441.301 211.28 441.788 211.28C441.95 211.265 442.112 211.265 442.274 211.28C442.461 211.265 442.649 211.265 442.837 211.28C450.283 211.328 457.64 212.906 464.451 215.916C474.276 220.22 482.634 227.294 488.502 236.272C494.371 245.251 497.496 255.745 497.496 266.471Z" fill="#92E3A9"/>
<path opacity="0.4" d="M464.482 215.931C400.748 212.618 400.444 283.374 400.444 283.374C400.444 283.374 390.716 260.285 406.6 234.734C415.477 220.43 430.92 214.122 442.867 211.326C450.311 211.364 457.668 212.932 464.482 215.931Z" fill="white"/>
<path d="M497.496 266.471C497.495 278.976 493.248 291.111 485.449 300.887C477.651 310.662 466.764 317.5 454.571 320.279C450.548 321.205 446.433 321.669 442.305 321.662C427.667 321.933 413.522 316.377 402.98 306.217C392.439 296.058 386.365 282.127 386.095 267.49C385.825 252.852 391.381 238.707 401.54 228.165C411.699 217.624 425.63 211.55 440.268 211.28C440.937 211.28 441.621 211.28 442.305 211.28C456.941 211.284 470.977 217.1 481.326 227.45C491.676 237.799 497.492 251.835 497.496 266.471V266.471Z" stroke="#263238" stroke-width="1.52" stroke-linecap="round" stroke-linejoin="round"/>
<path d="M497.496 266.471C497.496 278.976 493.248 291.111 485.45 300.887C477.651 310.662 466.764 317.5 454.572 320.279C453.903 320.279 453.219 320.279 452.535 320.279C438.987 320.243 425.926 315.228 415.837 306.186C405.748 297.145 399.335 284.709 397.82 271.247C396.305 257.784 399.793 244.235 407.621 233.177C415.448 222.119 427.068 214.326 440.268 211.28C440.937 211.28 441.621 211.28 442.305 211.28C456.942 211.284 470.977 217.1 481.327 227.45C491.676 237.799 497.492 251.835 497.496 266.471V266.471Z" stroke="#263238" stroke-width="1.52" stroke-linecap="round" stroke-linejoin="round"/>
<path d="M461.32 300.96L462.749 306.797L453.203 309.122L451.774 303.301C443.232 303.301 436.377 297.753 434.188 288.846L433.534 286.201L444.068 282.386L444.737 285.137C446.059 290.548 449.631 293.147 454.085 292.053C455.062 291.901 455.995 291.538 456.819 290.991C457.643 290.443 458.338 289.723 458.857 288.881C459.376 288.038 459.706 287.093 459.824 286.111C459.942 285.129 459.845 284.133 459.541 283.191C458.265 277.993 452.306 274.74 445.405 271.381C437.243 267.429 428.822 262.413 426.512 252.974C424.262 243.762 427.089 236.086 434.37 232.286L432.941 226.45L442.472 224.124L443.901 229.946C452.185 229.824 458.356 235.281 460.621 244.705L461.092 246.62L450.573 250.435L450.041 248.322C448.643 242.592 445.694 240.175 441.773 241.133C437.851 242.09 436.225 245.085 437.365 249.736C438.641 254.934 444.676 258.066 451.501 261.562C459.572 265.65 468.084 270.53 470.394 279.954C472.72 289.028 469.011 297.114 461.32 300.96Z" stroke="#263238" stroke-width="1.52" stroke-miterlimit="10"/>
<path opacity="0.3" d="M461.32 300.96L462.749 306.797L453.203 309.122L451.774 303.301C443.232 303.301 436.377 297.753 434.188 288.846L433.534 286.201L444.068 282.386L444.737 285.137C446.059 290.548 449.631 293.147 454.085 292.053C455.062 291.901 455.995 291.538 456.819 290.991C457.643 290.443 458.338 289.723 458.857 288.881C459.376 288.038 459.706 287.093 459.824 286.111C459.942 285.129 459.845 284.133 459.541 283.191C458.265 277.993 452.306 274.74 445.405 271.381C437.243 267.429 428.822 262.413 426.512 252.974C424.262 243.762 427.089 236.086 434.37 232.286L432.941 226.45L442.472 224.124L443.901 229.946C452.185 229.824 458.356 235.281 460.621 244.705L461.092 246.62L450.573 250.435L450.041 248.322C448.643 242.592 445.694 240.175 441.773 241.133C437.851 242.09 436.225 245.085 437.365 249.736C438.641 254.934 444.676 258.066 451.501 261.562C459.572 265.65 468.084 270.53 470.394 279.954C472.72 289.028 469.011 297.114 461.32 300.96Z" fill="black"/>
<path d="M414.094 313.926L425.752 313.394" stroke="#263238" stroke-width="1.52" stroke-linecap="round" stroke-linejoin="round"/>
<path d="M408.485 310.05L418.654 309.183" stroke="#263238" stroke-width="1.52" stroke-linecap="round" stroke-linejoin="round"/>
<path d="M403.925 305.961L414.094 305.094" stroke="#263238" stroke-width="1.52" stroke-linecap="round" stroke-linejoin="round"/>
<path d="M402.526 228.198H411.236" stroke="#263238" stroke-width="1.52" stroke-linecap="round" stroke-linejoin="round"/>
<path d="M406.828 224.185L415.507 223.79" stroke="#263238" stroke-width="1.52" stroke-linecap="round" stroke-linejoin="round"/>
<path d="M412.269 220.157L421.42 219.29" stroke="#263238" stroke-width="1.52" stroke-linecap="round" stroke-linejoin="round"/>
<path opacity="0.3" d="M454.738 320.234H454.571C450.548 321.16 446.433 321.624 442.305 321.617C427.878 321.565 414.045 315.867 403.767 305.741C393.49 295.616 387.587 281.869 387.32 267.445C387.054 253.02 392.447 239.065 402.343 228.567C412.239 218.069 425.853 211.864 440.268 211.28C440.769 211.28 441.301 211.28 441.788 211.28C428.336 215.521 405.764 226.358 399.729 248.961C391.202 281.078 410.4 317.543 454.738 320.234Z" fill="black"/>
<path opacity="0.1" d="M497.496 266.471C497.494 278.946 493.266 291.052 485.501 300.815C477.736 310.578 466.893 317.423 454.739 320.234H454.572C453.128 320.553 451.684 320.842 450.194 321.054L464.482 215.886C474.306 220.196 482.661 227.277 488.524 236.261C494.387 245.245 497.505 255.743 497.496 266.471Z" fill="black"/>
<path d="M528.808 179.588C524.438 185.761 518.104 190.27 510.84 192.379C503.577 194.488 495.813 194.073 488.817 191.201L488.619 191.11C487.581 190.653 486.567 190.146 485.579 189.59C484.463 188.99 483.387 188.32 482.357 187.583C475.623 182.441 471.093 174.935 469.681 166.581C468.268 158.227 470.08 149.649 474.748 142.579C479.417 135.509 486.595 130.475 494.833 128.494C503.07 126.513 511.752 127.732 519.125 131.906L519.87 132.377C520.22 132.574 520.554 132.818 520.904 133.061C521.253 133.304 521.922 133.806 522.424 134.201C529.068 139.53 533.428 147.194 534.615 155.629C535.801 164.063 533.724 172.633 528.808 179.588Z" fill="#92E3A9"/>
<path opacity="0.4" d="M478.435 180.044C478.435 180.044 472.978 163.978 480.229 152.152C489.349 137.332 503.317 130.568 522.333 134.216C522.333 134.216 512.027 127.254 494.775 132.194C477.523 137.134 468.266 160.877 478.435 180.044Z" fill="white"/>
<path d="M528.808 179.603C524.434 185.771 518.098 190.274 510.835 192.377C503.572 194.481 495.81 194.061 488.817 191.186C486.509 190.242 484.316 189.039 482.281 187.598C475.506 182.401 470.975 174.808 469.619 166.377C468.263 157.946 470.183 149.316 474.986 142.256C479.79 135.196 487.112 130.24 495.452 128.406C503.792 126.572 512.518 127.998 519.84 132.392C520.174 132.59 520.524 132.818 520.858 133.061C528.073 138.187 532.961 145.965 534.451 154.689C535.941 163.413 533.912 172.373 528.808 179.603Z" stroke="#263238" stroke-width="1.52" stroke-linecap="round" stroke-linejoin="round"/>
<path d="M528.807 179.603C524.433 185.771 518.097 190.274 510.834 192.377C503.571 194.481 495.81 194.061 488.816 191.186L487.798 190.517C481.194 185.73 476.568 178.695 474.789 170.736C473.01 162.776 474.201 154.441 478.138 147.298C482.076 140.155 488.488 134.698 496.168 131.953C503.848 129.208 512.267 129.364 519.839 132.392C520.174 132.59 520.523 132.818 520.858 133.061C528.072 138.187 532.96 145.965 534.45 154.689C535.94 163.413 533.911 172.373 528.807 179.603Z" stroke="#263238" stroke-width="1.52" stroke-linecap="round" stroke-linejoin="round"/>
<path d="M498.88 184.042L497.557 187.416L492.024 185.242L493.347 181.853C491.294 180.407 489.807 178.293 489.142 175.873C488.476 173.452 488.673 170.875 489.699 168.583L490.307 167.063L496.843 168.842L496.22 170.453C494.988 173.584 495.824 176.107 498.408 177.126C498.945 177.393 499.533 177.54 500.131 177.557C500.73 177.574 501.326 177.461 501.877 177.225C502.427 176.99 502.92 176.637 503.322 176.192C503.723 175.747 504.022 175.22 504.2 174.648C505.385 171.608 503.576 167.945 501.342 163.886C498.697 159.083 496.296 153.672 498.439 148.2C500.582 142.728 504.625 140.053 509.535 140.722L510.872 137.347L516.39 139.521L515.068 142.88C519.202 145.707 520.342 150.48 518.199 156.028L517.758 157.122L511.222 155.344L511.708 154.113C513.016 150.799 512.408 148.565 510.188 147.668C507.969 146.771 506.069 147.668 505.005 150.389C503.82 153.429 505.72 157.046 507.863 161.15C510.432 165.999 512.924 171.38 510.781 176.837C509.968 179.25 508.327 181.298 506.149 182.617C503.97 183.936 501.395 184.441 498.88 184.042V184.042Z" stroke="#263238" stroke-width="1.52" stroke-miterlimit="10"/>
<path opacity="0.3" d="M498.88 184.042L497.557 187.416L492.024 185.242L493.347 181.853C491.294 180.407 489.807 178.293 489.142 175.873C488.476 173.452 488.673 170.875 489.699 168.583L490.307 167.063L496.843 168.842L496.22 170.453C494.988 173.584 495.824 176.107 498.408 177.126C498.945 177.393 499.533 177.54 500.131 177.557C500.73 177.574 501.326 177.461 501.877 177.225C502.427 176.99 502.92 176.637 503.322 176.192C503.723 175.747 504.022 175.22 504.2 174.648C505.385 171.608 503.576 167.945 501.342 163.886C498.697 159.083 496.296 153.672 498.439 148.2C500.582 142.728 504.625 140.053 509.535 140.722L510.872 137.347L516.39 139.521L515.068 142.88C519.202 145.707 520.342 150.48 518.199 156.028L517.758 157.122L511.222 155.344L511.708 154.113C513.016 150.799 512.408 148.565 510.188 147.668C507.969 146.771 506.069 147.668 505.005 150.389C503.82 153.429 505.72 157.046 507.863 161.15C510.432 165.999 512.924 171.38 510.781 176.837C509.968 179.25 508.327 181.298 506.149 182.617C503.97 183.936 501.395 184.441 498.88 184.042Z" fill="black"/>
<path opacity="0.3" d="M519.049 131.921C509.929 130.294 498.377 129.398 492.145 133.441C480.7 140.782 473.571 150.039 473.677 165.042C473.784 180.044 487.798 190.562 487.798 190.562L488.619 191.155C486.383 190.222 484.258 189.044 482.281 187.644C475.547 182.502 471.017 174.996 469.605 166.642C468.192 158.288 470.004 149.71 474.672 142.64C479.341 135.57 486.519 130.536 494.757 128.555C502.994 126.574 511.676 127.793 519.049 131.966V131.921Z" fill="black"/>
<path opacity="0.1" d="M528.808 179.588C524.437 185.761 518.104 190.27 510.84 192.379C503.577 194.488 495.813 194.073 488.816 191.201L488.619 191.11C487.581 190.653 486.567 190.146 485.579 189.59L522.332 134.216C528.987 139.532 533.362 147.187 534.565 155.618C535.769 164.05 533.709 172.623 528.808 179.588Z" fill="black"/>
<path d="M511.602 607.635C497.454 624.654 480.587 639.215 461.685 650.727C455.795 654.251 449.705 657.428 443.445 660.242C400.262 679.653 351.044 680.914 305.019 669.758C208.24 646.304 156.895 560.88 150.374 466.047C148.626 440.42 144.704 412.741 155.086 388.36C165.468 363.979 186.459 348.84 210.201 338.322C227.438 330.646 246.058 325.493 262.976 321.282C293.592 313.719 325.886 317.051 354.312 330.706C374.209 340.146 388.376 356.546 405.111 370.363C406.884 371.822 408.668 373.277 410.461 374.726C427.366 388.333 445.137 400.828 463.661 412.133C491.796 429.294 520.6 445.482 538.582 474.301C567.264 520.235 543.066 570.243 511.602 607.635Z" fill="#92E3A9"/>
<path opacity="0.4" d="M511.602 607.635C497.454 624.654 480.587 639.215 461.685 650.727C455.795 654.251 449.705 657.428 443.445 660.242C400.262 679.653 351.044 680.914 305.019 669.758C208.24 646.304 156.895 560.88 150.374 466.047C148.626 440.42 144.704 412.741 155.086 388.36C165.468 363.979 186.459 348.84 210.201 338.322C227.438 330.646 246.058 325.493 262.976 321.282C293.592 313.719 325.886 317.051 354.312 330.706C374.209 340.146 388.376 356.546 405.111 370.363C406.884 371.822 408.668 373.277 410.461 374.726C427.366 388.333 445.137 400.828 463.661 412.133C491.796 429.294 520.6 445.482 538.582 474.301C567.264 520.235 543.066 570.243 511.602 607.635Z" fill="white"/>
<path d="M410.401 374.726C408.607 373.287 406.823 371.827 405.05 370.348C388.33 356.501 374.133 340.146 354.252 330.706C325.823 317.059 293.531 313.727 262.915 321.282C222.681 331.269 172.779 346.651 154.995 388.375C144.613 412.695 148.535 440.42 150.298 466.047C156.895 560.88 208.241 646.304 305.019 669.758C357.672 682.526 414.459 679.03 461.685 650.727C480.587 639.214 497.454 624.654 511.602 607.635C543.066 570.243 567.265 520.235 538.613 474.301C520.646 445.421 491.842 429.294 463.692 412.133C445.136 400.831 427.335 388.336 410.401 374.726V374.726Z" stroke="#263238" stroke-width="1.52" stroke-miterlimit="10"/>
<path d="M263.797 543.826C255.739 546.264 247.92 549.428 240.434 553.28" stroke="#263238" stroke-width="1.52" stroke-linecap="round" stroke-linejoin="round"/>
<path d="M313.121 534.432C301.35 535.451 289.668 537.305 278.161 539.98" stroke="#263238" stroke-width="1.52" stroke-linecap="round" stroke-linejoin="round"/>
<path d="M302.86 532C302.86 532 257.443 505.582 202.632 526.756" stroke="#263238" stroke-width="1.52" stroke-linecap="round" stroke-linejoin="round"/>
<path opacity="0.1" d="M511.603 607.635C497.454 624.654 480.588 639.215 461.686 650.727C455.796 654.251 449.706 657.428 443.446 660.242C438.504 658.729 433.648 656.948 428.899 654.907C400.536 642.747 376.733 622.182 353.477 601.905C339.447 589.745 325.19 577.281 308.394 569.27C285.681 558.531 259.841 556.403 235.677 563.282C248.175 549.176 265.166 539.826 283.77 536.818C271.762 525.89 255.057 521.299 238.823 521.01C222.59 520.722 213.652 522.713 197.783 526.27C203.088 516.511 217.163 507.68 228.275 507.938C217.712 507.798 207.166 507.052 196.689 505.704C182.355 503.394 175.941 486.522 173.798 472.173C167.87 432.653 173.874 390.564 195.443 356.972C199.713 350.272 204.653 344.023 210.187 338.322C227.423 330.646 246.043 325.493 262.961 321.282C293.577 313.719 325.871 317.051 354.298 330.706C374.195 340.146 388.361 356.546 405.096 370.363C406.87 371.822 408.653 373.276 410.447 374.726C427.352 388.333 445.123 400.828 463.647 412.133C491.782 429.294 520.586 445.482 538.567 474.301C567.265 520.235 543.067 570.243 511.603 607.635Z" fill="black"/>
<path d="M527.44 606.48C535.963 613.565 544.879 620.162 554.147 626.24C572.22 627.456 564.118 649.298 564.118 649.298L548.644 659.254C548.644 659.254 522.151 638.202 507.68 631.378C493.21 624.553 527.44 606.48 527.44 606.48Z" fill="white"/>
<path opacity="0.3" d="M399.016 376.504C399.016 376.504 396.538 351.986 392.586 345.101L332.577 332.88V328.229C332.577 328.229 333.96 320.142 320.584 315.081C307.208 310.019 279.331 316.601 272.141 322.042C264.952 327.484 267.581 336.847 267.581 336.847C267.581 336.847 243.413 349.053 232.561 353.704C223.677 357.803 215.016 362.369 206.614 367.384C206.614 367.384 201.689 423.746 202.662 436.833C203.635 449.92 201.872 462.232 202.997 469.482C204.121 476.733 205.003 480.852 212.603 487.023C220.203 493.194 227.119 502.223 247.046 493.27L244.265 491.066L375.441 446.88L399.016 376.504Z" fill="black"/>
<path d="M399.016 376.504C399.016 376.504 396.538 351.986 392.586 345.101L332.577 332.88V328.229C332.577 328.229 333.96 320.142 320.584 315.081C307.208 310.019 279.331 316.601 272.141 322.042C264.952 327.484 267.581 336.847 267.581 336.847C267.581 336.847 243.413 349.053 232.561 353.704C223.677 357.803 215.016 362.369 206.614 367.384C206.614 367.384 201.689 423.746 202.662 436.833C203.635 449.92 201.872 462.232 202.997 469.482C204.121 476.733 205.003 480.852 212.603 487.023C220.203 493.194 227.119 502.223 247.046 493.27L244.265 491.066L375.441 446.88L399.016 376.504Z" fill="#92E3A9"/>
<path opacity="0.05" d="M399.016 376.504C399.016 376.504 396.538 351.986 392.586 345.101L332.577 332.88V328.229C332.577 328.229 333.96 320.142 320.584 315.081C307.208 310.019 279.331 316.601 272.141 322.042C264.952 327.484 267.581 336.847 267.581 336.847C267.581 336.847 243.413 349.053 232.561 353.704C223.677 357.803 215.016 362.369 206.614 367.384C206.614 367.384 201.689 423.746 202.662 436.833C203.635 449.92 201.872 462.232 202.997 469.482C204.121 476.733 205.003 480.852 212.603 487.023C220.203 493.194 227.119 502.223 247.046 493.27L244.265 491.066L375.441 446.88L399.016 376.504Z" fill="black"/>
<path opacity="0.1" d="M393.377 348.08H368.267C365.905 348.084 363.622 348.924 361.822 350.452C360.021 351.979 358.82 354.096 358.432 356.425L346.059 430.905C346.059 430.905 329.02 432.318 316.951 441.119C304.883 449.92 275.197 387.129 228.29 387.098C228.29 387.098 241.787 417.954 244.782 442.578C244.782 442.578 215.461 439.386 210.597 450.862C205.733 462.338 212.801 483.846 225.204 475.517C237.607 467.187 249.281 453.294 257.565 462.08C265.849 470.866 302.861 475.593 302.861 475.593L359.815 446.88L381.901 436.498L393.377 348.08Z" fill="black"/>
<path opacity="0.4" d="M313.653 311.159C313.653 311.159 327.91 315.111 330.221 319.899C332.531 324.687 332.288 336.802 332.288 336.802C328.828 344.898 323.586 352.11 316.951 357.899L306.311 336.802L307.269 360.726C307.269 360.726 287.083 357.367 278.51 350.922L269.953 344.462C269.953 344.462 266.259 332.302 266.791 328.183C267.323 324.064 282.721 315.704 282.721 315.704L313.653 311.159Z" fill="white"/>
<path d="M551.137 680.078C550.742 679.212 556.989 668.177 552.095 656.944C547.2 645.711 539.403 650.043 539.403 650.043C539.403 650.043 517.196 635.907 507.863 631.438C501.138 628.061 494.662 624.211 488.483 619.917L478.618 633.202L487.738 661.413L551.137 680.078Z" fill="#92E3A9"/>
<path d="M538.598 649.359L567.113 666.778C567.113 666.778 587.162 653.919 596.723 645.042C606.283 636.166 627.761 617.257 627.761 617.257L641.441 598.85C641.441 598.85 631.956 587.115 616.148 596.539C595.719 608.699 570.807 626.362 554.193 626.194C554.193 626.194 557.461 646.608 538.704 649.359" fill="#92E3A9"/>
<path d="M308.819 237.47C308.819 237.47 321.755 257.047 324.111 263.386C326.467 269.724 328.367 279.102 327.895 283.617C327.424 288.131 322.682 312.314 320.295 313.014L318 315.613L319.52 325.858C319.52 325.858 309.397 343.353 279.635 330.524C279.635 330.524 278.48 310.095 274.863 303.681C271.245 297.266 265.834 304.897 260.407 286.368C254.981 267.839 272.263 248.368 272.263 248.368L308.819 237.47Z" fill="white"/>
<path opacity="0.5" d="M629.022 593.134C629.022 593.134 614.354 595.688 609.597 604.367C604.839 613.046 595.704 629.173 592.588 636.971C589.472 644.769 563.708 663.601 563.708 663.601L567.128 666.778C567.128 666.778 588.104 653.813 600.765 641.485C613.427 629.158 641.35 598.15 641.35 598.15C641.35 598.15 639.343 596.159 629.022 593.134Z" fill="white"/>
<path opacity="0.5" d="M482.251 628.322L478.618 633.201L489.775 656.336L551.137 678.391L553.979 669.408C553.979 669.408 554.922 660.288 533.384 653.357C511.845 646.425 498.712 641.85 492.587 637.093C486.461 632.335 482.251 628.322 482.251 628.322Z" fill="white"/>
<path d="M279.681 456.501C279.681 456.501 260.894 453.674 252.123 469.041C243.353 484.409 244.25 491.066 244.25 491.066C244.25 491.066 256.668 502.345 273.738 501.706C290.807 501.068 315.659 481.521 323.761 475.152C331.863 468.783 352.291 450.558 366.23 454.328L367.75 441.15C367.75 441.15 366.382 435.237 354.465 436.833C342.548 438.429 337.867 445.223 334.021 445.223C330.175 445.223 326.543 441.53 318.821 454.723C318.806 454.723 291.704 459.526 279.681 456.501Z" fill="white"/>
<path d="M304.092 265.62C304.492 268.083 305.061 270.516 305.794 272.901C306.069 274.065 306.587 275.158 307.314 276.108C308.743 277.628 311.053 278.023 313.166 278.342C313.515 278.367 313.846 278.506 314.109 278.738C314.279 279.01 314.359 279.329 314.337 279.65C314.324 282.044 313.605 284.381 312.269 286.368" stroke="#263238" stroke-width="1.52" stroke-linecap="round" stroke-linejoin="round"/>
<path opacity="0.1" d="M494.852 612.56L482.251 628.262C482.251 628.262 496.083 641.045 510.401 645.787C524.72 650.53 549.784 659.467 553.98 666.353L552.368 658.16C552.368 658.16 513.168 634.114 504.169 628.368C501.509 626.623 499.285 624.29 497.669 621.549C496.054 618.808 495.09 615.733 494.852 612.56Z" fill="black"/>
<path opacity="0.1" d="M538.598 649.359L563.693 663.601C563.693 663.601 576.081 655.12 582.161 648.873C588.241 642.625 595.735 635.694 600.401 621.695C606.77 602.345 625.01 593.134 625.01 593.134C625.01 593.134 599.641 605.081 586.432 614.414C573.224 623.747 560.349 627.699 552.871 627.061C552.795 627.106 558.799 646.106 538.598 649.359Z" fill="black"/>
<path d="M295.246 289.818C295.246 289.818 305.111 297.555 315.355 294.652C315.355 294.652 305.688 313.804 295.246 289.818Z" fill="white" stroke="#263238" stroke-width="1.52" stroke-linecap="round" stroke-linejoin="round"/>
<path d="M294.881 273.098C295.17 275.226 294.516 277.066 293.452 277.218C292.388 277.37 291.278 275.698 290.99 273.615C290.701 271.533 291.339 269.648 292.418 269.496C293.498 269.344 294.653 270.97 294.881 273.098Z" fill="#263238"/>
<path d="M316.358 269.222C316.632 271.366 315.994 273.205 314.93 273.342C313.866 273.478 312.741 271.822 312.467 269.754C312.194 267.687 312.817 265.772 313.896 265.635C314.975 265.498 316.07 267.094 316.358 269.222Z" fill="#263238"/>
<path d="M293.361 264.07C293.361 264.07 287.615 261.106 283.526 267.459" stroke="#263238" stroke-width="1.52" stroke-linecap="round" stroke-linejoin="round"/>
<path d="M308.089 260.118C308.089 260.118 314.169 254.904 317.68 260.118" stroke="#263238" stroke-width="1.52" stroke-linecap="round" stroke-linejoin="round"/>
<path d="M273.844 283.632C273.844 283.632 270.15 278.175 266.244 278.342C262.337 278.51 260.787 283.982 262.185 289.271C263.584 294.561 269.405 301.948 273.813 301.249C276.3 300.928 278.568 299.666 280.152 297.722" stroke="#263238" stroke-width="1.52" stroke-linecap="round" stroke-linejoin="round"/>
<path d="M309.26 241.878C313.409 245.328 317.802 249.082 319.9 254.159C321.754 258.476 322.165 263.279 323.867 267.642C325.676 272.308 327.652 277.187 327.804 282.279C327.723 286.99 327.106 291.677 325.965 296.248C325.333 300.212 324.393 304.12 323.153 307.937C321.101 313.394 317.316 316.753 312.239 319.337C308.545 321.222 302.389 323.897 298.392 321.374C296.066 319.854 292.57 315.506 289.667 311.509" stroke="#263238" stroke-width="1.52" stroke-linecap="round" stroke-linejoin="round"/>
<path d="M273.844 301.249C273.844 301.249 280.38 317.27 278.799 328.533" stroke="#263238" stroke-width="1.52" stroke-linecap="round" stroke-linejoin="round"/>
<path d="M272.172 280.942C273.042 280.298 273.731 279.441 274.173 278.453C274.615 277.465 274.795 276.38 274.695 275.302C274.452 272.84 272.75 270.56 273.084 268.098C273.364 266.918 273.804 265.783 274.391 264.723C275.277 262.678 275.666 260.453 275.529 258.229C275.392 256.005 274.731 253.845 273.601 251.925C273.601 251.925 294.364 252.898 304.092 246.711C313.82 240.525 321.238 224.702 315.355 217.147C309.473 209.593 298.012 219.898 289.515 221.038C281.019 222.178 250.801 226.997 245.983 238.64C241.164 250.283 248.506 254.463 248.734 265.574C248.962 276.686 248.962 297.738 265.575 295.807C265.575 295.807 259.359 287.766 263.675 279.482C266.609 276.002 272.172 280.942 272.172 280.942Z" fill="#263238"/>
<path d="M312.892 230.28C315.712 232.476 318.049 235.228 319.759 238.366C321.469 241.504 322.516 244.96 322.833 248.52C323.76 256.85 338.535 273.038 327.879 282.264C327.879 282.264 325.402 272.46 323.943 267.626C322.483 262.793 320.614 253.946 318.167 250.906C315.719 247.866 302.739 237.226 302.739 237.226L312.892 230.28Z" fill="#263238"/>
<path d="M275.759 328.183C275.759 328.183 286.004 334.932 305.034 335.206L307.268 360.726C307.268 360.726 285.867 359.1 269.952 344.462C269.952 344.462 265.651 333.078 266.791 328.183C267.931 323.289 278.16 318.44 278.16 318.44" stroke="#263238" stroke-width="1.52" stroke-linecap="round" stroke-linejoin="round"/>
<path d="M318.805 316.768L319.413 325.888C315.401 330.067 310.481 333.265 305.034 335.236L316.951 357.93C316.951 357.93 331.163 346.864 332.576 335.236C332.576 335.236 332.698 323.334 330.22 319.93C327.743 316.525 318.714 314.929 318.714 314.929" stroke="#263238" stroke-width="1.52" stroke-linecap="round" stroke-linejoin="round"/>
<path opacity="0.8" d="M261.136 246.24C262.656 242.425 266.821 240.16 270.88 239.552C274.938 238.944 279.103 239.37 283.207 239.263C288.89 239.217 294.455 237.642 299.319 234.703C301.735 233.231 303.838 231.298 305.508 229.013C307.177 226.729 308.379 224.138 309.047 221.388" stroke="white" stroke-width="1.52" stroke-linecap="round" stroke-linejoin="round"/>
<path opacity="0.8" d="M251.332 245.495C253.901 237.698 262.231 232.879 270.423 232.195C274.482 231.846 278.586 232.317 282.583 231.846C286.581 231.374 290.837 229.702 292.95 226.222" stroke="white" stroke-width="1.52" stroke-linecap="round" stroke-linejoin="round"/>
<path d="M247.016 493.27C227.256 503.515 220.233 492.966 209.229 484.242C198.224 475.517 205.444 459.922 203.149 434.918C200.853 409.914 206.569 367.384 206.569 367.384C206.569 367.384 211.493 366.259 225.158 357.899C238.823 349.539 267.581 336.802 267.581 336.802" stroke="#263238" stroke-width="1.52" stroke-linecap="round" stroke-linejoin="round"/>
<path d="M266.593 455.422C266.593 455.422 263.462 445.497 254.616 445.238C245.769 444.98 231.816 448.962 221.875 467.765" stroke="#263238" stroke-width="1.52" stroke-linecap="round" stroke-linejoin="round"/>
<path d="M252.594 444.646C252.044 444.61 251.505 444.481 250.998 444.266C243.705 441.641 235.79 441.281 228.289 443.232" stroke="#263238" stroke-width="1.52" stroke-linecap="round" stroke-linejoin="round"/>
<path d="M223.198 380.958C239.294 398.742 247.138 422.271 254.57 445.071" stroke="#263238" stroke-width="1.52" stroke-linecap="round" stroke-linejoin="round"/>
<path d="M332.577 332.88C332.577 332.88 361.761 339.842 376.018 341.498C390.276 343.155 392.586 345.146 392.586 345.146L395.246 355.087" stroke="#263238" stroke-width="1.52" stroke-linecap="round" stroke-linejoin="round"/>
<path d="M468.571 350.178L369.178 353.993L361.061 456.213H378.085L464.391 436.894L475.244 352.625L468.571 350.178Z" fill="white"/>
<path d="M366.229 459.238L474.939 355.042L464.391 436.894L366.229 459.238Z" fill="#92E3A9"/>
<path opacity="0.7" d="M366.229 459.238L474.939 355.042L464.391 436.894L366.229 459.238Z" fill="white"/>
<path d="M366.229 456.502L374.923 357.899L475.243 352.625L464.391 436.894L366.229 456.502Z" stroke="#263238" stroke-width="1.52" stroke-linecap="round" stroke-linejoin="round"/>
<path d="M432.957 400.398C432.288 406.402 429.081 410.962 425.798 410.598C422.515 410.233 420.417 405.05 421.086 399.046C421.755 393.042 424.977 388.482 428.26 388.846C431.544 389.211 433.641 394.394 432.957 400.398Z" fill="#263238"/>
<path d="M464.391 436.894C464.391 436.894 510.325 435.586 524.689 445.071C539.053 454.556 547.489 502.117 545.498 527.379C543.507 552.642 526.179 610.614 526.179 610.614L492.982 573.04C492.982 573.04 476.627 513.578 485.549 490.291C485.549 490.291 441.469 492.769 424.111 487.327C424.111 487.327 408.561 461.867 381.9 453.446L464.391 436.894Z" fill="#263238"/>
<path d="M533.186 611.602C521.395 600.595 510.807 588.367 501.6 575.122C485.534 550.301 463.327 526.482 440.481 507.893C422.074 492.966 417.909 468.646 395.2 456.441C357.58 436.27 325.052 476.353 312.892 484.47C300.732 492.586 279.68 501.782 279.68 501.782C279.68 501.782 287.372 530.662 309.959 534.082C332.546 537.502 355.392 521.922 366.199 529.446C377.006 536.97 385.001 570.562 420.691 590.246C449.86 606.328 489.608 622.014 510.112 632.594C514.672 634.965 518.077 637.458 520.661 638.871C527.744 642.732 535.314 647.277 542.458 651.776L567.067 666.763C567.067 666.763 591.767 652.156 601.252 638.689C602.513 636.88 605.143 632.062 607.605 627.41C612.971 617.242 619.765 608.122 629.174 603.09C635.68 599.579 641.471 598.53 641.334 598.166C640.711 597.01 628.916 590.976 620.905 594.274C603.942 601.282 570.031 628.201 554.025 626.194C546.581 622.084 539.595 617.192 533.186 611.602V611.602Z" stroke="#263238" stroke-width="1.52" stroke-miterlimit="10"/>
<path d="M533.186 611.602C518.396 617.576 512.438 626.802 510.158 632.609C489.653 621.969 449.905 606.343 420.736 590.262C385.047 570.502 377.112 536.97 366.244 529.462C355.376 521.953 332.516 537.578 310.004 534.098C287.493 530.617 279.68 501.767 279.68 501.767C279.68 501.767 300.748 492.647 312.908 484.53C325.068 476.414 353.112 436.316 395.2 456.502C418.441 467.643 422.074 492.982 440.481 507.954C463.281 526.482 485.534 550.362 501.6 575.183C510.785 588.426 521.375 600.637 533.186 611.602Z" fill="#263238"/>
<path d="M422.044 482.737C422.044 482.737 410.659 459.602 392.404 455.118" stroke="white" stroke-width="1.52" stroke-linecap="round" stroke-linejoin="round"/>
<path d="M362.369 436.681C349.813 433.945 336.027 447.822 330.221 445.223C325.904 443.293 318.805 454.723 318.805 454.723C307.121 456.41 295.306 457.006 283.511 456.502C266.593 455.422 258.583 458.721 252.594 467.765L244.234 489.911C244.234 489.911 266.289 509.671 289.834 498.165C313.379 486.658 344.661 451.942 366.214 452.063" stroke="#263238" stroke-width="1.52" stroke-linecap="round" stroke-linejoin="round"/>
<path d="M537.639 648.766C537.639 648.766 558.251 650.454 553.417 625.83" stroke="#263238" stroke-width="1.52" stroke-miterlimit="10"/>
<path d="M634.768 610.614C633.248 613.654 614.354 629.736 598.075 643.796C598.075 643.583 602.635 634.995 604.52 631.332C608.852 623.246 620.039 601.069 641.334 598.15C644.359 599.974 634.768 610.614 634.768 610.614Z" fill="#263238"/>
<path d="M626.666 593.302C605.128 597.588 600.233 625.222 592.588 636.971C584.942 648.721 563.708 664.696 563.708 664.696" stroke="#263238" stroke-width="1.52" stroke-miterlimit="10"/>
<path d="M552.095 657.643C555.606 664.058 553.949 671.506 552.095 676.172C551.186 678.49 550.056 680.714 548.72 682.814C518.229 677.798 487.738 661.413 487.738 661.413L479.879 637.093L478.618 633.202L490.459 617.257" stroke="#263238" stroke-width="1.52" stroke-miterlimit="10"/>
<path d="M552.095 676.172C551.187 678.49 550.056 680.714 548.721 682.814C518.229 677.798 487.738 661.413 487.738 661.413L479.88 637.093C483.817 642.23 491.113 649.754 502.057 652.84C516.907 657.05 544.313 661.975 552.095 676.172Z" fill="#263238"/>
<path d="M361.061 452.656L369.178 353.993L468.571 350.178L475.244 352.625" stroke="#263238" stroke-width="1.52" stroke-linecap="round" stroke-linejoin="round"/>
<path d="M553.28 636.971C553.28 636.971 566.869 639.403 577.311 630.891C587.754 622.379 604.58 603.121 604.58 603.121" stroke="#263238" stroke-width="1.52" stroke-miterlimit="10"/>
<path d="M567.113 624.72C567.113 624.72 563.829 629.66 567.113 639.57" stroke="#263238" stroke-width="1.52" stroke-linecap="round" stroke-linejoin="round"/>
<path d="M576.749 619.993C575.255 624.919 575.695 630.23 577.98 634.843" stroke="#263238" stroke-width="1.52" stroke-linecap="round" stroke-linejoin="round"/>
<path d="M588.241 613.335C588.241 613.335 585.489 621.589 588.241 628.87" stroke="#263238" stroke-width="1.52" stroke-linecap="round" stroke-linejoin="round"/>
<path d="M493.149 615.205L482.251 628.322C482.251 628.322 493.225 640.315 508.714 645.301C524.203 650.286 551.867 658.753 554.162 667.766" stroke="#263238" stroke-width="1.52" stroke-miterlimit="10"/>
<path d="M425.1 396C424.492 396 424 396.485 424 397.083V403.917C424 404.515 424.492 405 425.1 405C425.707 405 426.2 404.515 426.2 403.917V397.083C426.2 396.485 425.707 396 425.1 396Z" fill="#6FCF97"/>
<path d="M428.081 398.864C427.528 398.864 427.08 399.305 427.08 399.849V402.221C427.08 402.765 427.528 403.206 428.081 403.206C428.634 403.206 429.082 402.765 429.082 402.221V399.849C429.082 399.305 428.634 398.864 428.081 398.864Z" fill="#6FCF97"/>
<path d="M427.08 397.394C427.08 396.85 427.528 396.409 428.081 396.409C428.634 396.409 429.082 396.85 429.082 397.394V397.595C429.082 398.139 428.634 398.581 428.081 398.581C427.528 398.581 427.08 398.139 427.08 397.595V397.394Z" fill="#6FCF97"/>
<path d="M430.999 399.366C430.446 399.366 429.998 399.807 429.998 400.351V400.552C429.998 401.096 430.446 401.537 430.999 401.537C431.552 401.537 432 401.096 432 400.552V400.351C432 399.807 431.552 399.366 430.999 399.366Z" fill="#6FCF97"/>
</g>
<defs>
<clipPath id="clip0">
<rect width="760" height="760" fill="white"/>
</clipPath>
</defs>
</svg>
